<?xml version="1.0" encoding="UTF-8"?>
<svg viewBox="0 0 800 470.58688" xmlns="http://www.w3.org/2000/svg" xmlns:xlink="http://www.w3.org/1999/xlink">
 <defs>
  <clipPath id="cb">
   <path d="m178.89-782.52 13.352-25.49c4.6374-8.8534 14.547-14.746 25.398-8.5277l16.413 9.4066c10.85 6.2184 14.694 18.717 10.114 27.517l-13.504 25.941c-4.5807 8.7995-16.332 10.76-27.396 5.2907l-15.786-7.8034c-11.864-5.8646-13.227-17.48-8.5901-26.334z"/>
  </clipPath>
  <filter id="ca">
   <feGaussianBlur stdDeviation="2.05877"/>
  </filter>
  <filter id="bz">
   <feGaussianBlur stdDeviation="3.41476"/>
  </filter>
  <filter id="by">
   <feGaussianBlur stdDeviation="1.4047"/>
  </filter>
  <filter id="bu">
   <feGaussianBlur stdDeviation="1.08614"/>
  </filter>
  <filter id="bq">
   <feGaussianBlur stdDeviation="6.10754"/>
  </filter>
  <filter id="h">
   <feGaussianBlur stdDeviation="1.36436"/>
  </filter>
  <filter id="bf">
   <feGaussianBlur stdDeviation=".67069"/>
  </filter>
  <filter id="bg">
   <feGaussianBlur stdDeviation="4.77699"/>
  </filter>
  <filter id="be">
   <feGaussianBlur stdDeviation="3.52532"/>
  </filter>
  <filter id="bd">
   <feGaussianBlur stdDeviation="1.57117"/>
  </filter>
  <filter id="bx">
   <feGaussianBlur stdDeviation="1.44454"/>
  </filter>
  <filter id="bv">
   <feGaussianBlur stdDeviation="2.23115"/>
  </filter>
  <filter id="bt">
   <feGaussianBlur stdDeviation="2.56582"/>
  </filter>
  <filter id="bs">
   <feGaussianBlur stdDeviation=".98968"/>
  </filter>
  <filter id="bl">
   <feGaussianBlur stdDeviation="2.96042"/>
  </filter>
  <filter id="bi">
   <feGaussianBlur stdDeviation="5.04565"/>
  </filter>
  <filter id="bm">
   <feGaussianBlur stdDeviation=".60309"/>
  </filter>
  <filter id="bj"/>
  <filter id="bw" x="-.09318" y="-.10146" width="1.1864" height="1.2029">
   <feGaussianBlur stdDeviation="2.7178"/>
  </filter>
  <filter id="br" x="-.09262" y="-.10225" width="1.1852" height="1.2045">
   <feGaussianBlur stdDeviation="1.04456"/>
  </filter>
  <filter id="bp" x="-.11411" y="-.12653" width="1.2282" height="1.2531">
   <feGaussianBlur stdDeviation="1.02334"/>
  </filter>
  <filter id="bo" x="-.11867" y="-.1316" width="1.2373" height="1.2632">
   <feGaussianBlur stdDeviation="1.06428"/>
  </filter>
  <filter id="bn" x="-.09574" y="-.10616" width="1.1915" height="1.2123">
   <feGaussianBlur stdDeviation=".85859"/>
  </filter>
  <filter id="bh" x="-.0267" y="-.11315" width="1.0534" height="1.2263">
   <feGaussianBlur stdDeviation="4.2049"/>
  </filter>
  <filter id="j" x="-.05346" y="-.11369" width="1.1069" height="1.2274">
   <feGaussianBlur stdDeviation="1.17773"/>
  </filter>
  <filter id="i" x="-.05346" y="-.11369" width="1.1069" height="1.2274">
   <feGaussianBlur stdDeviation="1.09301"/>
  </filter>
  <filter id="bk" x="-.04943" y="-.13986" width="1.0989" height="1.2797">
   <feGaussianBlur stdDeviation="9.05055"/>
  </filter>
  <filter id="bc" x="-.06409" y="-.11969" width="1.1282" height="1.2394">
   <feGaussianBlur stdDeviation="43.38488"/>
  </filter>
  <linearGradient id="e">
   <stop offset="0"/>
   <stop stop-opacity="0" offset="1"/>
  </linearGradient>
  <linearGradient id="c">
   <stop stop-color="#666" offset="0"/>
   <stop stop-color="#666" stop-opacity="0" offset="1"/>
  </linearGradient>
  <linearGradient id="d">
   <stop stop-color="#ccc" offset="0"/>
   <stop stop-color="#ccc" stop-opacity="0" offset="1"/>
  </linearGradient>
  <linearGradient id="a">
   <stop stop-color="#fff" offset="0"/>
   <stop stop-color="#fff" stop-opacity="0" offset="1"/>
  </linearGradient>
  <linearGradient id="f">
   <stop stop-color="#cbc8cb" offset="0"/>
   <stop stop-color="#b3b3b3" stop-opacity="0" offset="1"/>
  </linearGradient>
  <linearGradient id="g">
   <stop stop-color="#fff" offset="0"/>
   <stop stop-opacity="0" offset="1"/>
  </linearGradient>
  <linearGradient id="b">
   <stop stop-color="#1a1a1a" offset="0"/>
   <stop stop-color="#808080" stop-opacity=".49107" offset=".32634"/>
   <stop stop-color="#808080" stop-opacity="0" offset="1"/>
  </linearGradient>
  <linearGradient id="az" x1="-872.11" x2="-723.43" y1="-1033.9" y2="-947.53" gradientTransform="matrix(.95852 .28502 -.5565 .83085 -20.885 -83.539)" gradientUnits="userSpaceOnUse">
   <stop stop-color="#fff" offset="0"/>
   <stop stop-color="#999990" stop-opacity="0" offset="1"/>
  </linearGradient>
  <linearGradient id="ax" x1="833.16" x2="833.98" y1="-903.72" y2="-914.15" gradientUnits="userSpaceOnUse">
   <stop stop-color="#808080" offset="0"/>
   <stop stop-color="#808080" stop-opacity="0" offset="1"/>
  </linearGradient>
  <linearGradient id="aw" x1="-153.78" x2="-123.42" y1="-754.97" y2="-613.55" gradientUnits="userSpaceOnUse">
   <stop stop-color="#4d4d4d" offset="0"/>
   <stop stop-color="#4d4d4d" stop-opacity="0" offset="1"/>
  </linearGradient>
  <linearGradient id="at" x1="775.96" x2="886.48" y1="-244.28" y2="-282.39" gradientTransform="matrix(.57557 -.81775 .91026 .41404 300.25 -47.489)" gradientUnits="userSpaceOnUse">
   <stop stop-color="#1a1a1a" offset="0"/>
   <stop stop-color="#4d4d4d" stop-opacity="0" offset="1"/>
  </linearGradient>
  <linearGradient id="ap" x1="463.57" x2="452.04" y1="-819.43" y2="-898.19" gradientUnits="userSpaceOnUse">
   <stop stop-color="#fff" stop-opacity="0" offset="0"/>
   <stop stop-color="#fff" offset=".06564"/>
   <stop stop-color="#fff" stop-opacity="0" offset="1"/>
  </linearGradient>
  <linearGradient id="al" x1="494.67" x2="524.31" y1="-863.28" y2="-823.28" gradientUnits="userSpaceOnUse">
   <stop stop-color="#333" offset="0"/>
   <stop stop-color="#ccc" offset="1"/>
  </linearGradient>
  <linearGradient id="ak" x1="573.83" x2="611.55" y1="-1006" y2="-994.21" gradientUnits="userSpaceOnUse">
   <stop stop-color="#e6e6e6" offset="0"/>
   <stop stop-color="#e6e6e6" stop-opacity="0" offset="1"/>
  </linearGradient>
  <linearGradient id="ag" x1="-520.78" x2="-427.81" y1="-813.52" y2="-790.52" gradientUnits="userSpaceOnUse">
   <stop stop-color="#fff" stop-opacity="0" offset="0"/>
   <stop stop-color="#fff" offset=".0223"/>
   <stop stop-color="#fff" stop-opacity="0" offset="1"/>
  </linearGradient>
  <linearGradient id="af" x1="-418.23" x2="-447.43" gradientUnits="userSpaceOnUse">
   <stop stop-color="#e6e6e6" offset="0"/>
   <stop stop-color="#b3b3b3" offset=".78912"/>
   <stop stop-color="#fff" stop-opacity="0" offset="1"/>
  </linearGradient>
  <linearGradient id="ad" x1="114.3" x2="169.13" y1="-700.22" y2="-578.83" gradientUnits="userSpaceOnUse">
   <stop stop-color="#333" offset="0"/>
   <stop stop-color="#595959" stop-opacity=".49804" offset=".21154"/>
   <stop stop-color="#1a1a1a" offset="1"/>
  </linearGradient>
  <linearGradient id="ac" x1="501.69" x2="408.33" y1="-668.81" y2="-863.54" gradientUnits="userSpaceOnUse">
   <stop stop-color="#c8c6c8" offset="0"/>
   <stop stop-color="#666" stop-opacity="0" offset="1"/>
  </linearGradient>
  <linearGradient id="aa" x1="849.34" x2="822.39" y1="36.484" y2="36.097" gradientTransform="matrix(.49928 -.89415 .97296 .31959 -52.488 -64.15)" gradientUnits="userSpaceOnUse">
   <stop stop-color="#e6e6e6" stop-opacity="0" offset="0"/>
   <stop stop-color="#e6e6e6" offset=".35084"/>
   <stop stop-color="#8d8b8b" stop-opacity="0" offset="1"/>
  </linearGradient>
  <linearGradient id="x" x1="484.17" x2="77.929" y1="-478.49" y2="-601.99" gradientUnits="userSpaceOnUse">
   <stop stop-color="#4d4d4d" offset="0"/>
   <stop stop-color="#333" stop-opacity="0" offset="1"/>
  </linearGradient>
  <linearGradient id="w" x1="404.38" x2="400.9" y1="-538.3" y2="-527.7" gradientUnits="userSpaceOnUse">
   <stop stop-color="#333" offset="0"/>
   <stop stop-color="#808080" offset=".5"/>
   <stop stop-color="#333" offset="1"/>
  </linearGradient>
  <linearGradient id="v" x1="668.86" x2="339.03" y1="-911.16" y2="-637.83" gradientUnits="userSpaceOnUse">
   <stop stop-color="#fff" offset="0"/>
   <stop stop-color="#1a1a1a" offset="1"/>
  </linearGradient>
  <linearGradient id="t" x1="113.49" x2="120.41" y1="-606.69" y2="-602.81" gradientUnits="userSpaceOnUse">
   <stop stop-color="#ccc" offset="0"/>
   <stop stop-color="#4d4d4d" stop-opacity="0" offset="1"/>
  </linearGradient>
  <linearGradient id="r" x1="795.56" x2="1015.5" y1="-19.602" y2="97.532" gradientTransform="matrix(.2925 -.51893 .56913 .17589 -62.283 -93.229)" gradientUnits="userSpaceOnUse">
   <stop stop-color="#4d4d4d" offset="0"/>
   <stop stop-color="#e6e6e6" offset="1"/>
  </linearGradient>
  <linearGradient id="bb" x1="289.1" x2="300.65" y1="-627.98" y2="-671.35" gradientUnits="userSpaceOnUse" xlink:href="#e"/>
  <linearGradient id="ba" x1="532.21" x2="528.61" y1="-929.04" y2="-918.86" gradientUnits="userSpaceOnUse" xlink:href="#e"/>
  <linearGradient id="ay" x1="-338.41" x2="-8.531" y1="-876.46" y2="-1091.4" gradientUnits="userSpaceOnUse" xlink:href="#d"/>
  <linearGradient id="av" x1="536.95" x2="570.85" y1="-971.57" y2="-952.54" gradientUnits="userSpaceOnUse" xlink:href="#b"/>
  <linearGradient id="au" x1="231.1" x2="271.63" y1="-922.65" y2="-898.37" gradientTransform="matrix(.85212 0 .02758 .78374 411.69 -224.16)" gradientUnits="userSpaceOnUse" xlink:href="#b"/>
  <linearGradient id="as" x1="231.1" x2="271.63" y1="-922.65" y2="-898.37" gradientUnits="userSpaceOnUse" xlink:href="#b"/>
  <linearGradient id="ar" x1="268.07" x2="242.11" y1="-893.22" y2="-909.48" gradientUnits="userSpaceOnUse" xlink:href="#a"/>
  <linearGradient id="aq" x1="231.1" x2="271.63" y1="-922.65" y2="-898.37" gradientTransform="matrix(.86448 -.04726 .02798 .79204 299.04 -24.143)" gradientUnits="userSpaceOnUse" xlink:href="#b"/>
  <linearGradient id="ao" x1="192.98" x2="224.81" y1="-834.12" y2="-765.54" gradientTransform="matrix(1.1176 .13131 .17331 1.033 415.53 -42.594)" gradientUnits="userSpaceOnUse" xlink:href="#g"/>
  <linearGradient id="an" x1="567.87" x2="546.16" y1="-948.5" y2="-961.25" gradientUnits="userSpaceOnUse" xlink:href="#a"/>
  <linearGradient id="am" x1="886.93" x2="816.1" y1="-335.63" y2="-266.13" gradientTransform="matrix(.57557 -.81775 .91026 .41404 300.25 -47.489)" gradientUnits="userSpaceOnUse" xlink:href="#g"/>
  <linearGradient id="aj" x1="270.58" x2="243.67" y1="-892.46" y2="-909.32" gradientTransform="matrix(.83425 -.0456 .027 .76434 304.16 -49.792)" gradientUnits="userSpaceOnUse" xlink:href="#a"/>
  <linearGradient id="ai" x1="270.58" x2="243.67" y1="-892.46" y2="-909.32" gradientTransform="matrix(.82232 0 .02661 .75633 416.74 -249.22)" gradientUnits="userSpaceOnUse" xlink:href="#a"/>
  <linearGradient id="ah" x1="-439.6" x2="-299.5" y1="-794.44" y2="-752.32" gradientUnits="userSpaceOnUse" xlink:href="#a"/>
  <linearGradient id="ae" x1="-228.68" x2="192.19" y1="-654.08" y2="-620.76" gradientUnits="userSpaceOnUse" xlink:href="#c"/>
  <linearGradient id="ab" x1="518.65" x2="423.41" y1="-548.17" y2="-852.23" gradientTransform="matrix(1.0239 .01885 -.01885 1.0239 -54.654 -67.532)" gradientUnits="userSpaceOnUse" xlink:href="#c"/>
  <linearGradient id="z" x1="69.638" x2="69.566" y1="-679.2" y2="-690.52" gradientUnits="userSpaceOnUse" xlink:href="#f"/>
  <linearGradient id="y" x1="98.29" x2="98.217" y1="-957.77" y2="-969.09" gradientUnits="userSpaceOnUse" xlink:href="#f"/>
  <linearGradient id="u" x1="182.22" x2="329.29" y1="-459.68" y2="-640.78" gradientUnits="userSpaceOnUse" xlink:href="#d"/>
  <linearGradient id="s" x1="154.26" x2="160.29" y1="-687.61" y2="-675.05" gradientUnits="userSpaceOnUse" xlink:href="#d"/>
  <linearGradient id="q" x1="812.04" x2="811.9" y1="-88.983" y2="149.69" gradientTransform="matrix(.2925 -.51893 .56913 .17589 -62.283 -93.229)" gradientUnits="userSpaceOnUse" xlink:href="#a"/>
  <linearGradient id="p" x1="812.04" x2="811.9" y1="-88.983" y2="149.69" gradientUnits="userSpaceOnUse" xlink:href="#a"/>
  <linearGradient id="o" x1="405.94" x2="410.55" y1="-517.71" y2="-564.45" gradientUnits="userSpaceOnUse" xlink:href="#a"/>
  <linearGradient id="n" x1="554.45" x2="105.34" y1="-525.39" y2="-662.72" gradientUnits="userSpaceOnUse" xlink:href="#c"/>
  <radialGradient id="m" cx="-820.09" cy="-907.99" r="250.71" gradientTransform="matrix(2.1719 1.6154 -1.9985 -.04531 -267.72 227.39)" gradientUnits="userSpaceOnUse">
   <stop stop-color="#999" stop-opacity="0" offset="0"/>
   <stop stop-color="#999" stop-opacity="0" offset=".76874"/>
   <stop stop-color="#fff" offset="1"/>
  </radialGradient>
  <radialGradient id="l" cx="220.93" cy="-804.03" r="21.583" gradientTransform="matrix(1.2059 -1.5834 1.2757 .97158 1280 284.06)" gradientUnits="userSpaceOnUse">
   <stop stop-color="#999" offset="0"/>
   <stop stop-color="#ccc" offset="1"/>
  </radialGradient>
  <radialGradient id="k" cx="-21.122" cy="-403.09" r="382.78" gradientTransform="matrix(1.4752 .33526 -.07086 .31181 -46.176 -454.86)" gradientUnits="userSpaceOnUse">
   <stop stop-color="#fff" stop-opacity="0" offset="0"/>
   <stop stop-color="#fff" offset="1"/>
  </radialGradient>
 </defs>
 <g transform="matrix(.73269 0 0 .73269 453.68 654.83)">
  <path transform="matrix(.59569 0 0 .59569 -576.23 -881.1)" d="m282.67 82.904 1374 411.47-195.32 458.47c-925.92-333.96-886.31-241.34-1429.4-429.95z" fill="#1a1a1a" filter="url(#bc)" opacity=".85398"/>
  <g transform="matrix(.59569 0 0 .59569 -236.7 -148.85)">
   <path d="m-311.59-1227.8 622.53 190.16 2.6868 19.925 386.64 119.29c14.528 5.6338 18.799 11.232 8.8274 35.199-0.46887 1.5989-160.79 359.91-160.79 359.91l-28.1 25.758c-6.2358 8.2466-18.097 10.121-28.092 6.4373l-583.4-176.69c-96.754-27.506-169.67-26.87-264.72-52.31-110.87-29.672-107.9-30.345-149.72-44.189-39.227-12.984-51.71-55.108-52.293-118.3-5.2241-97.346 200.73-379.16 246.44-365.19z" fill="#666"/>
   <path d="m312.34-1015.2 381.43 118.57-172.96 360.65-420.45-134.16z" fill="#333"/>
   <path d="m312.21-1010.7 365.57 120.96-151.27 327.75-422.2-125.34z" fill="#1a1a1a"/>
   <path d="m133.08-720.34 420.25 100.22-26.818 58.111-422.2-125.34z" fill="url(#bb)"/>
   <path d="m312.21-1010.7 365.57 120.96-12.602 29.088-338.2-117.34z" fill="url(#ba)"/>
   <path d="m97.77-711.93 206.07-326.28 6.0968-2.2982 5.1838 33.351 36.079 21.866c19.922 45.172 8.1572 46.169-63.499 168.53-44.507 76-58.097 120.18-103.44 119.84-17.062-0.12723-43.564-4.5912-43.564-4.5912l-17.872 10.09-15.369 16.582-2.6198 32.611z"/>
   <path d="m-342.11-1079.8h133.34v113.14h-133.34z" fill="#b3b3b3"/>
   <path d="m104.09-645.4c-307.65-95.702-349.03-78.69-439.23-105.43l-222.61-68.911-0.27784-42.865c-5.2241-97.346 200.67-378.97 246.44-365.19l622.07 185.83-72.191 166.5s-129.28 167.35-127.63 175.42c-4.8938 7.6516-6.5696 54.645-6.5696 54.645z" fill="#ccc"/>
   <path d="m-283.29-1210.8 569.72 171.08 0.0774 16.731 32.288 17.887c21.112 11.695 11.669 32.217-0.56487 53.034l-117.83 200.5c-12.234 20.817-37.528 31.175-63.849 24.943l-28.592-6.6157-18.275 16.886-585.43-176.23c-23.11-6.9568-29.312-28.046-19.558-50.136 22.864-51.777 49.886-98.908 88.742-154.67s74.008-86.18 89.574-100.65c17.68-16.439 30.582-19.692 53.697-12.751z" fill="#fff"/>
   <path d="m-279.62-1203.4 589.08 177.17 0.077 16.635 32.819 19.952c20.518 12.473 10.918 29.864-1.2548 50.562l-117.24 199.35c-12.173 20.698-37.309 30.863-63.529 24.8l-29.282-9.2444-19.85 18.622-602.21-181.46c-22.991-6.9276-29.165-27.885-19.459-49.848 22.75-51.48 49.635-98.341 88.297-153.78s73.637-85.685 89.125-100.08c17.591-16.344 30.428-19.579 53.427-12.678z" fill="#ccc"/>
   <path transform="matrix(1 0 0 1.0084 -20.885 -78.252)" d="m131.59-624.33-610.49-184.01c-23.34-7.0348-29.606-28.327-19.754-50.639 23.094-52.296 50.386-99.9 89.633-156.22s74.751-87.044 90.473-101.66c17.857-16.604 30.889-19.89 54.235-12.879h-5e-5l594.63 178.8z" fill="#fff" filter="url(#bz)"/>
   <path d="m-283.29-1210.8 592.95 179.16 0.0774 16.731 32.288 17.887c21.112 11.695 11.669 32.217-0.56487 53.034l-117.83 200.5c-12.234 20.817-37.497 31.041-63.849 24.943l-28.592-6.6157-18.275 16.886-608.66-184.31c-23.099-6.9946-29.312-28.046-19.558-50.136 22.864-51.777 49.886-98.908 88.742-154.67s74.008-86.18 89.574-100.65c17.68-16.439 30.582-19.692 53.697-12.751z" fill="#1a1a1a"/>
   <path d="m-281.62-1210 589.08 178.18 0.077 16.635 32.819 17.809c21.105 11.452 10.918 32.007-1.2548 52.705l-117.24 199.35c-12.173 20.698-37.309 30.863-63.529 24.8l-28.448-6.5777-18.184 16.789-604.71-183.3c-22.98-6.9655-29.165-27.885-19.459-49.848 22.75-51.48 49.635-98.341 88.297-153.78s73.637-85.685 89.125-100.08c17.591-16.344 30.428-19.579 53.427-12.678z" fill="#e6e6e6"/>
   <path d="m-281.62-1212 588.07 178.18 0.077 16.635 32.819 19.952c20.518 12.473 10.918 29.864-1.2548 50.562l-117.24 199.35c-12.173 20.698-37.309 30.863-63.529 24.8l-28.448-6.5777-18.184 16.789-603.7-183.3c-22.976-6.9763-29.165-27.885-19.459-49.848 22.75-51.48 49.635-98.341 88.297-153.78s73.637-85.685 89.125-100.08c17.591-16.344 30.428-19.579 53.427-12.678z" fill="#808080"/>
   <path d="m-199.27-1177 417.33 123.29c21.464 6.3407 18.757 17.312 10.616 29.467l-172.05 256.87c-11.102 16.576-17.465 21.157-40.007 14.414l-407.33-121.86c-22.279-6.665-61.928-18.314-47.759-48.038 8.9612-18.798 41.972-78.869 83.503-136.92s83.839-100.18 94.259-109.95c23.06-21.632 41.761-13.083 61.435-7.2707z" fill="url(#m)"/>
   <path d="m-173.21-1165.7 376.91 111.43c23.562 6.9657 22.002 11.316 10.329 28.669l-168.11 249.92c-12.965 19.274-15.191 21.072-38.925 14.024l-384.54-114.21c-20.275-6.0216-20.672-9.7399-10.329-28.669 0 0 49.513-79.753 89.921-136.23s85.812-110.91 85.812-110.91c15.198-21.329 25.275-18.059 38.925-14.024z" fill="#1a1a1a"/>
   <path d="m-199.27-1177 418.34 122.28c21.482 6.2791 18.757 17.312 10.616 29.467l-172.05 256.87c-11.102 16.576-17.445 21.091-40.007 14.414l-408.34-120.85c-22.298-6.5992-61.928-18.314-47.759-48.038 8.9612-18.798 41.972-78.869 83.503-136.92s83.839-100.18 94.259-109.95c23.06-21.632 41.745-13.026 61.435-7.2707z" fill="none" stroke="url(#az)" stroke-width="1.077"/>
   <path d="m31.674-753.49-419.98-124.31 200.27-278.18 402.57 130.16z" fill="#939a79"/>
   <path d="m90.751-856.67-48.807 71.773c-12.41 18.25-14.423 19.986-36.983 13.324l-368.46-108.79c-19.273-5.6907-19.641-9.2541-9.8138-27.24 0 0 47.044-75.776 85.437-129.44s52.238-65.979 52.238-65.979" fill="url(#ay)"/>
   <path d="m101.11-695.75c-416.04-132.39-309.15-70.683-649.52-169.89-3.1247-0.47052-6.8524-3.6941-6.722-6.3491-0.67288-8.4813 2.1066-13.765 4.89-19.963 1.3854-4.055 3.8459-2.8519 7.64-1.7195l648.01 194.36z" fill="#fff" filter="url(#ca)"/>
   <text transform="matrix(.61267,-.83874,.87156,.43904,0,0)" x="742.0542" y="-904.40002" fill="#fff" font-family="Segoe UI" font-size="25.104" letter-spacing="0" word-spacing="0">
    <tspan x="742.0542" y="-904.40002" fill="#fff" font-family="Microstyle Bold Extended ATT" font-weight="bold">NOKIA</tspan>
   </text>
   <g transform="matrix(.52208 -.85289 1.0246 .24164 -20.885 -83.539)" fill="#fff" font-family="Segoe UI" font-size="24.609" letter-spacing="0" word-spacing="0">
    <path d="m759.07535-830.74408h-2.47532l-8.86791-13.73445c-.22431-.34445-.40856-.70493-.55275-1.08145h-.0721c.0641.36851.0961,1.15757.0961,2.36718v12.44872h-2.01872v-17.23115h2.61952l8.62759,13.51816c.36047.56076.59279.94527.69694,1.15355h.0481c-.0801-.49666-.12017-1.3418-.12016-2.5354v-12.13631h2.01871z"/>
    <path d="m763.4-831.03v-1.8986c0.96129 0.54474 1.9786 0.8171 3.0521 0.8171 1.5621 0 2.7777-0.62884 3.6469-1.8865s1.3037-3.0441 1.3038-5.3592c-0.016 8e-3 -0.0321 8e-3 -0.0481 0-0.737 1.482-2.0187 2.223-3.8452 2.223-1.474 1e-5 -2.6836-0.50066-3.6289-1.502s-1.4179-2.2911-1.4179-3.8692c0-1.6822 0.51869-3.0621 1.5561-4.1396s2.3652-1.6162 3.9834-1.6162c1.6983 2e-5 3.022 0.67092 3.9713 2.0127s1.4239 3.2944 1.4239 5.8579c-1e-5 3.1803-0.61684 5.6316-1.8505 7.3539s-2.948 2.5835-5.1429 2.5835c-1.1536 0-2.1549-0.19226-3.004-0.57678zm4.4219-15.561c-0.95329 1e-5 -1.7484 0.3585-2.3852 1.0754s-0.95528 1.6282-0.95528 2.7337c0 1.2096 0.31242 2.1609 0.93726 2.8538s1.47 1.0394 2.5354 1.0394c0.92924 0 1.7163-0.31642 2.3612-0.94928s0.96729-1.4059 0.9673-2.3191c-1e-5 -1.3057-0.32044-2.3712-0.96129-3.1963s-1.474-1.2376-2.4994-1.2377z"/>
    <path d="m786.46-830.74h-9.7451v-1.7303h3.8932v-13.386l-3.9894 1.1896v-1.8745l5.96-1.8144v15.885h3.8812z"/>
   </g>
   <path transform="matrix(.51652 -.65847 .7559 .35916 -102.71 -240.87)" d="m747.28-924.22h110.82a12.447 12.447 0 0 1 12.447 12.447 12.447 12.447 0 0 1 -12.447 12.447h-110.82a12.447 12.447 0 0 1 -12.447 -12.447 12.447 12.447 0 0 1 12.447 -12.447" fill="#fff"/>
   <path transform="matrix(.51652 -.65847 .7559 .35916 -102.71 -240.87)" d="m747.39-922.42h111.24a10.171 10.171 0 0 1 10.171 10.171v1.3296a10.171 10.171 0 0 1 -10.171 10.171h-111.24a10.171 10.171 0 0 1 -10.171 -10.171v-1.3296a10.171 10.171 0 0 1 10.171 -10.171" fill="url(#ax)"/>
   <path transform="matrix(.51982 -.65587 .75728 .35624 -102.71 -240.87)" d="m751.09-921.05h30.89a5.235 5.235 0 0 1 5.235 5.235v1.7259a5.235 5.235 0 0 1 -5.235 5.235h-30.89a5.235 5.235 0 0 1 -5.235 -5.235v-1.7259a5.235 5.235 0 0 1 5.235 -5.235"/>
   <path transform="matrix(.51982 -.65587 .75728 .35624 -102.71 -240.87)" d="m808.95-921.11h1.2561a5.724 5.724 0 0 1 5.724 5.724v0.95306a5.724 5.724 0 0 1 -5.724 5.724h-1.2561a5.724 5.724 0 0 1 -5.724 -5.724v-0.95306a5.724 5.724 0 0 1 5.724 -5.724"/>
   <path d="m-553.21-839.71s216.76 62.028 342.92 73.118c75.347 6.6235 244.57 70.82 309.22 85.972l-1.3527 27.907c-159.54-48.682-266.49-74.186-311.26-79.91-63.254-8.0881-101.33-13.89-341.63-87.74z" fill="url(#aw)" filter="url(#bq)"/>
   <g transform="translate(-298.6 -27.825)">
    <path transform="matrix(.99436 0 0 .98608 302.13 -58.607)" d="m86.559-708.45 145.43-224.58c8.4752-13.087 17.142-26.506 37.712-15.803l49.897 25.962c23.68 12.321 23.768 22.561 13.033 40.228l-135.26 222.6c-8.1764 13.456-25.844 14.788-42.362 8.4636l-51.383-19.673c-19.726-7.5525-26.388-22.813-17.073-37.198z" fill="#fff" filter="url(#by)"/>
    <path d="m389.68-758.06 142.07-219.39c8.2794-12.785 16.747-25.894 36.841-15.438l48.744 25.362c23.134 12.037 23.219 22.04 12.732 39.299l-132.13 217.46c-7.9876 13.145-25.247 14.447-41.384 8.2681l-50.196-19.219c-19.27-7.3781-25.779-22.287-16.679-36.339z"/>
    <path d="m390.4-756.63 142.07-219.39c8.2794-12.785 16.747-25.894 36.841-15.438l48.744 25.362c23.134 12.037 23.219 22.04 12.732 39.299l-132.13 217.46c-7.9876 13.145-25.247 14.447-41.384 8.2681l-50.196-19.219c-19.27-7.3781-25.779-22.287-16.679-36.339z" fill="#fff"/>
    <path d="m393.19-757.8 139.65-217.42c8.1382-12.67 16.461-25.661 36.213-15.299l47.913 25.135c22.739 11.929 22.823 21.842 12.514 38.946l-129.88 215.5c-7.8513 13.027-24.816 14.317-40.678 8.1939l-49.34-19.046c-18.941-7.3118-25.339-22.086-16.394-36.013z" fill="#808080"/>
    <path d="m516.81-932.51 32.075-47.858c5.2753-7.871 9.7894-6.7191 14.547-4.2783l11.452 5.8749c4.758 2.4408 5.9831 5.8519 3.0821 10.147l-33.27 49.257c-2.901 4.295-8.5167 5.1813-13.353 2.8788l-11.751-5.595c-4.8359-2.3025-5.6684-6.1224-2.7834-10.427z" fill="url(#av)" stroke="#000" stroke-linecap="square" stroke-width="1.2986"/>
    <path d="m564.02-908.22 30.996-47.859c5.0979-7.8712 9.7377-6.7192 14.671-4.2784l11.875 5.875c4.9337 2.4409 6.3019 5.852 3.4973 10.147l-32.164 49.258c-2.8046 4.2951-8.4951 5.1814-13.503 2.8788l-12.169-5.595c-5.0081-2.3026-5.9908-6.1224-3.2028-10.427z" fill="url(#au)" stroke="#000" stroke-linecap="square" stroke-width="1.3108"/>
    <path d="m454.26-844.92 33.881-49.453c12.782-18.656 25.109-23.849 48.938-12.723l32.538 15.192c19.841 9.2638 25.306 13.979 13.057 33.71l-36.024 58.025c-7.6578 12.335-17.743 25.398-41.795 14.866l-46.109-20.192c-13.299-5.8239-25.18-9.2185-4.4853-39.424z" fill="url(#at)"/>
    <g transform="matrix(.86362 0 0 .80692 220.96 -45.173)">
     <path d="m207.01-872.81 38.352-61.064c6.3076-10.043 11.705-8.5733 17.394-5.4589l13.693 7.496c5.6891 3.1144 7.1539 7.4668 3.6852 12.947l-39.78 62.85c-3.4687 5.4802-10.183 6.6111-15.966 3.6732l-14.05-7.1389c-5.7822-2.9379-6.7776-7.8118-3.3281-13.304z" fill="url(#as)" stroke="#000" stroke-linecap="square" stroke-width="1.604"/>
     <path d="m274.95-918.04-37.191 58.76c-3.2429 5.1236-8.9623 5.9967-16.531 1.9236-7.2719-3.9131 1.9945-8.63 6.4504-12.742 15.56-14.217 41.035-49.066 37.666-55.317 0.51415-7.029-1.9769-9.9817 5.5842-6.061 8.3105 4.3092 8.1341 6.9399 4.0217 13.437z" fill="url(#ar)"/>
    </g>
    <path d="m453.58-725.23 31.446-50.178c5.1718-8.2526 9.8789-7.3435 14.884-5.1456l12.047 5.2901c5.0052 2.1979 6.3933 5.5759 3.548 10.08l-32.631 51.66c-2.8453 4.5045-8.6183 5.7175-13.699 3.6638l-12.346-4.9903c-5.0808-2.0537-6.0776-5.867-3.2493-10.38z" fill="url(#aq)" stroke="#000" stroke-linecap="square" stroke-width="1.3285"/>
    <path d="m460.54-849.92c19.313-25.23 31.257-51.259 44.026-58.526 9.4763-3.4183 16.165-5.173 36.145 5.3011 3.3743 1.7689 47.142 18.942 46.102 25.545-1.4266 9.0627-20.353 15.2-31.512 18.284-4.9336-6.9888-20.689-11.574-29.446-16.155-6.6946-3.5029-13.698-5.7289-22.187-4.9248-11.698 0.82341-18.878 10.726-22.88 17.2-12.257 19.828-23.985 25.76-12.55 45.2-22.942 8.819-32.083 2.9672-7.6996-31.924z" fill="url(#ap)"/>
    <path d="m468.79-841.96 17.27-25.964c6.6296-9.9672 19.985-14.529 34.926-7.7777l22.149 10.008c14.941 6.751 17.918 18.038 11.878 28.389l-15.934 27.304c-6.0404 10.351-21.081 14.377-36.094 8.1782l-21.42-8.8451c-16.098-6.6474-19.405-21.325-12.775-31.292z" fill="#4d4d4d"/>
    <path d="m470.7-836.44 16.894-25.49c5.8677-8.8534 18.407-14.746 32.136-8.5277l20.768 9.4066c13.729 6.2184 18.593 18.717 12.797 27.517l-17.087 25.941c-5.7959 8.7995-20.665 10.76-34.664 5.2907l-19.974-7.8034c-15.012-5.8646-16.737-17.48-10.869-26.334z"/>
    <path d="m468.79-841.96 17.27-25.964c6.6296-9.9672 19.985-14.529 34.926-7.7777l22.149 10.008c14.941 6.751 17.918 18.038 11.878 28.389l-15.934 27.304c-6.0404 10.351-21.081 14.377-36.094 8.1782l-21.42-8.8451c-16.098-6.6474-19.405-21.325-12.775-31.292z" fill="none" stroke="url(#ao)" stroke-width="2.064"/>
    <path transform="matrix(.8911,.45381,-.573,.81955,0,0)" d="m-99.949-1124.8h3.6116v28.802h-3.6116z" fill="#1a1a1a"/>
    <path d="m573.63-967.96-31.105 46.051c-2.7122 4.0155-7.4955 4.6998-13.826 1.5076-6.0818-3.0668 1.6681-6.7635 5.3947-9.9866 13.014-11.142 34.319-38.455 31.502-43.353 0.43001-5.5088-1.6534-7.8229 4.6703-4.7502 6.9504 3.3773 6.8028 5.439 3.3635 10.531z" fill="url(#an)"/>
    <path transform="matrix(.8911,.45381,-.573,.81955,0,0)" d="m-90.677-905.97h3.6116v28.802h-3.6116z" fill="#1a1a1a"/>
    <path d="m454.26-844.92 33.881-49.453c12.782-18.656 25.109-23.849 48.938-12.723l32.538 15.192c19.841 9.2638 25.306 13.979 13.057 33.71l-36.024 58.025c-7.6578 12.335-17.743 25.398-41.795 14.866l-46.109-20.192c-13.299-5.8239-25.18-9.2185-4.4853-39.424z" fill="none" stroke="url(#am)" stroke-width="1.091"/>
    <path transform="matrix(1.2653 0 0 1 244.35 -53.918)" d="m245.71-775.49c0 17.752-15.67 32.143-35 32.143s-35-14.391-35-32.143 15.67-32.143 35-32.143 35 14.391 35 32.143z" clip-path="url(#cb)" fill="#666" filter="url(#bw)"/>
    <path d="m483.46-832.77 11.333-17.1c3.9363-5.9392 12.348-9.8924 21.558-5.7208l13.932 6.3104c9.2099 4.1716 12.473 12.556 8.5849 18.459l-11.462 17.403c-3.8882 5.9031-13.863 7.2182-23.254 3.5492l-13.4-5.2349c-10.07-3.9342-11.228-11.727-7.2915-17.666z" fill="#1a1a1a" filter="url(#bu)"/>
    <path d="m486.13-845.63 11.706-17.662c4.0657-6.1345 12.754-10.218 22.267-5.9089l14.39 6.5178c9.5128 4.3087 12.883 12.969 8.8671 19.066l-11.839 17.975c-4.016 6.0972-14.319 7.4555-24.019 3.666l-13.84-5.407c-10.402-4.0636-11.597-12.112-7.5313-18.247z" fill="url(#al)"/>
    <path d="m495.15-852 8.2752-12.727c2.8742-4.4203 9.0162-7.3625 15.741-4.2578l10.173 4.6966c6.7248 3.1047 9.1074 9.3452 6.2684 13.739l-8.3696 12.952c-2.839 4.3934-10.122 5.3722-16.98 2.6416l-9.7841-3.8961c-7.3531-2.9281-8.1982-8.7276-5.324-13.148z" fill="#ccc"/>
    <path d="m496.71-851.99 7.6334-11.74c2.6512-4.0775 8.317-6.7914 14.52-3.9275l9.3837 4.3323c6.2032 2.8639 8.4011 8.6204 5.7822 12.673l-7.7204 11.947c-2.6188 4.0527-9.3372 4.9555-15.663 2.4367l-9.0252-3.5939c-6.7828-2.701-7.5624-8.0507-4.9111-12.128z" fill="url(#l)"/>
    <path d="m605.93-1002-4e-3 3.9532s-11.784-3.6743-13.159-1.481c-0.9846 1.5702 13.336 7.9922 13.336 7.9922l3e-3 1.4785s-33.344-14.919-34.599-15.792c3.283-5.5558 34.422 5.0794 34.422 5.0794z" fill="url(#ak)"/>
    <path d="m487.81-762.18 9.1751 4.8995-1.598 2.5744-6.1397-3.1637-11.789 18.57 6.4046 3.7536-1.6932 2.7008-9.8894-5.0781z" fill="#002b00"/>
    <path d="m511.04-764.26-30.507 48.297c-2.6601 4.2113-7.5799 5.1731-14.237 2.3048-6.3959-2.7557 1.4828-6.9295 5.2197-10.397 13.054-11.995 34.101-40.802 31.014-45.593 0.24781-5.5916-1.9883-7.8125 4.6578-5.0645 7.3048 3.0204 7.2259 5.1123 3.8526 10.453z" fill="url(#aj)"/>
    <path d="m597.81-944.33 9.1751 4.8995-1.598 2.5744-6.1397-3.1637-11.789 18.57 6.4046 3.7536-1.6932 2.7008-9.8894-5.0781z" fill="#2b0000"/>
    <path transform="matrix(.9074,.42027,-.54204,.84035,0,0)" d="m-3.0417-1111.3h2.8058v13.612h-2.8058z" fill="#2b0000"/>
    <path d="m620.66-943.67-30.071 46.052c-2.6221 4.0156-7.4716 4.6998-14.034 1.5076-6.3045-3.0669 1.4616-6.7636 5.1451-9.9868 12.867-11.142 33.614-38.455 30.571-43.354 0.24427-5.5089-1.9598-7.8231 4.5912-4.7503 7.2004 3.3773 7.1226 5.4391 3.7976 10.531z" fill="url(#ai)"/>
   </g>
   <path d="m-513.74-805.52-0.0295-29.424c-0.01-9.937 7.9196-15.654 17.444-12.821l139.83 41.598c9.5245 2.8334 16.161 13.112 16.171 23.049l0.0295 29.424" fill="#fff" filter="url(#bf)"/>
   <path d="m-511.43-803.87-0.0288-28.644c-0.01-9.6738 7.7098-15.239 16.982-12.481l136.13 40.497c9.2722 2.7583 16.482 12.765 16.492 22.439l0.0288 28.644"/>
   <path d="m-511.43-803.44-0.0285-28.405c-0.01-9.5932 7.6456-15.112 16.841-12.377l135 40.159c9.1949 2.7353 16.345 12.659 16.354 22.252l0.0285 28.405s-3.4476 1.3442-8.4476 0.1903c0.50988-0.25651-159.74-50.224-159.74-50.224z" fill="#808080"/>
   <path d="m546.17-501.51-5.5944 6.4666c-29.385-8.4592-111.38-34.34-111.38-34.34-2.4599 0.1621 0.31454 19.086-3.0901 18.254-5.2358-1.28-44.937-15.074-49.446-16.23-4.3034-1.1035 1.7416-17.162-2.3446-20.709 0 0-183.97-60.745-271.98-88.604-83.788-26.521-216.03-69.994-300.04-76.415-2.2357-0.40552-3.6904 0.48875-4.5488 2.0416-3.8434 6.9456-17.652 30.839-28.714 35.198 0 0-77.51-11.552-125.04-24.272-110.87-29.672-108.38-28.967-149.72-44.189-56.713-20.882-52.021-75.6-52.021-75.6l45.555 13.37 1.5032 1.8955 59.283 19.06 4.3117-2.3144 28.181 8.1355-0.47459 3.835 68.312 21.985 8.9767-1.0929c55.468 15.28 123.8 29.458 172.04 36.009 171.63 33.947 489.55 147.89 716.24 217.51z"/>
   <path d="m-418.86-815.38 52.133 15.779c8.734 2.6435 15.161 10.118 15.172 19.244l-0.35752 26.02-67.068-21.407z" fill="url(#ah)"/>
   <path d="m-451.4-786.12-58.957-18.505-0.0271-20.635c-0.016-12.202 7.2492-16.218 16.019-13.696l43.233 13.474z" fill="url(#ag)"/>
   <path d="m-454.19-830.87 38.691 11.459-3.4942 4.0035-0.24243 35.43-27.824-8.0468-7.3174 1.8892z" fill="url(#af)"/>
   <path transform="matrix(.9515,.30765,-.02578,.99967,0,0)" d="m94-697.35h328.52v22.524h-328.52z" fill="#fff"/>
   <g transform="translate(-20.885 -83.539)">
    <path d="m-373-714.97c-0.99467-0.0214-1.6785 0.45886-1.75 1.1875l0.0937 22.094c-0.26163 1.1147 1.5262 1.4505 2.5 1l24.472-4.7318-21.128 2.3256c-0.7725 0.35742-2.2076 0.10306-2-0.78125l-0.10932-19.664c-0.76206-1.8842-1.4813-1.4166-2.0781-1.4295z" fill="#fff" filter="url(#br)"/>
    <path d="m-349.37-696.76-19.451 3.6633c-0.7725 0.35742-2.1922 0.10385-1.9847-0.78046l-0.0877-17.529c0.0907-0.92487 1.441-1.3494 3.0201-0.4375z" fill="#b3b3b3" filter="url(#bp)" opacity=".55097"/>
   </g>
   <path transform="matrix(-1 0 0 -1 -845.01 -1512.2)" d="m-349.37-696.76-19.451 3.6633c-0.7725 0.35742-2.1922 0.10385-1.9847-0.78046l-0.0877-17.529c0.0907-0.92487 1.441-1.3494 3.0201-0.4375z" fill="#fff" filter="url(#bo)" opacity=".55097"/>
   <path transform="matrix(-.77778 0 0 -.90328 -762.01 -1445.9)" d="m-349.37-696.76-19.451 3.6633c-0.7725 0.35742-2.1922 0.10385-1.9847-0.78046l-0.0877-17.529c0.0907-0.92487 1.441-1.3494 3.0201-0.4375z" fill="#999" filter="url(#bn)" opacity=".55097"/>
   <path d="m539.28-493.93-19.075 16.375c-6.2358 8.2466-18.097 10.121-28.092 6.4373l-583.4-176.69c-78.275-21.151-113.23-22.871-135-27.375 9.8422-8.503 16.547-17.916 24.607-32.618 1.6856-3.1626 2.0288-3.8376 6.004-3.308 89.063 10.84 170.76 36.042 274.82 68.528 89.525 27.948 184.32 60.323 294.18 96.076 4.0469 3.0974-2.4737 18.459 2.39 20.04 44.666 14.515 4.0458 1.3934 49.994 16.417 6.3757 2.2954 0.63439-19.549 5.4859-17.356 33.291 10.635 72.862 22.713 108.08 33.47z" fill="url(#k)"/>
   <path d="m-203.26-704.67c104.13 6.7807 281.89 67.346 385.35 101.19-14.566-4.0557-43.922-1.4949-58.737-5.5675-103.91-28.565-249.76-78.259-341.94-72.489 0 0 6.6645-5.1354 15.328-23.13z" fill="url(#ae)" filter="url(#bh)" opacity=".82168"/>
   <path transform="matrix(.9515,.30765,-.02578,.99967,0,0)" d="m93.094-694.24h325.44v18.755h-325.44z" fill="url(#ad)"/>
   <path transform="matrix(1.0239 .01885 -.01885 1.0239 -52.488 -64.15)" d="m398.06-899.24 237.58 82.127c30.723 11.46 18.353 37.841 15.9 43.908l-97.106 208.34c-9.6211 20.638-17.191 37.48-61.889 27.497l-257.75-66.49c-16.352-6.3227-18.315-7.9128-2.7079-15.567 24.511-12.021 34.598-42.074 89.929-141.15 31.922-57.161 61.379-100.11 58.762-125.11-0.77313-7.388 9.5502-16.797 17.281-13.553z"/>
   <path transform="matrix(1.0239 .01885 -.01885 1.0239 -52.488 -64.15)" d="m397.57-897.93 236.06 81.603c26.594 9.2234 19.951 30.387 15.405 41.132l-97.738 212.06c-10.694 23.29-23.454 32.576-61.386 23.115l-253.49-66.364c-16.14-6.2407-18.077-7.8102-2.6728-15.365 24.194-11.865 34.15-41.528 88.764-139.32 31.509-56.421 60.539-98.609 57.684-123.26-1.0926-9.4316 9.8615-17.212 17.374-13.608z" fill="url(#ac)"/>
   <g fill="#333">
    <path transform="matrix(.49465 -.89672 .97256 .32079 -35.218 -47.325)" d="m732.31-44.782h46.501a5.9359 5.9359 0 0 1 5.9359 5.9359v2.1277a5.9359 5.9359 0 0 1 -5.9359 5.9359h-46.501a5.9359 5.9359 0 0 1 -5.9359 -5.9359v-2.1277a5.9359 5.9359 0 0 1 5.9359 -5.9359"/>
    <path transform="matrix(.49465 -.89672 .97256 .32079 -35.218 -47.325)" d="m820.66-45.053h46.501a5.9359 5.9359 0 0 1 5.9359 5.9359v2.1277a5.9359 5.9359 0 0 1 -5.9359 5.9359h-46.501a5.9359 5.9359 0 0 1 -5.9359 -5.9359v-2.1277a5.9359 5.9359 0 0 1 5.9359 -5.9359"/>
    <path transform="matrix(.49465 -.89672 .97256 .32079 -35.218 -47.325)" d="m904.47-44.047h46.501a5.9359 5.9359 0 0 1 5.9359 5.9359v2.1277a5.9359 5.9359 0 0 1 -5.9359 5.9359h-46.501a5.9359 5.9359 0 0 1 -5.9359 -5.9359v-2.1277a5.9359 5.9359 0 0 1 5.9359 -5.9359"/>
    <path transform="matrix(.49465 -.89672 .97256 .32079 22.943 -27.232)" d="m732.31-44.782h46.501a5.9359 5.9359 0 0 1 5.9359 5.9359v2.1277a5.9359 5.9359 0 0 1 -5.9359 5.9359h-46.501a5.9359 5.9359 0 0 1 -5.9359 -5.9359v-2.1277a5.9359 5.9359 0 0 1 5.9359 -5.9359"/>
    <path transform="matrix(.49465 -.89672 .97256 .32079 22.943 -27.232)" d="m820.66-45.053h46.501a5.9359 5.9359 0 0 1 5.9359 5.9359v2.1277a5.9359 5.9359 0 0 1 -5.9359 5.9359h-46.501a5.9359 5.9359 0 0 1 -5.9359 -5.9359v-2.1277a5.9359 5.9359 0 0 1 5.9359 -5.9359"/>
    <path transform="matrix(.49465 -.89672 .97256 .32079 22.943 -27.232)" d="m904.47-44.047h46.501a5.9359 5.9359 0 0 1 5.9359 5.9359v2.1277a5.9359 5.9359 0 0 1 -5.9359 5.9359h-46.501a5.9359 5.9359 0 0 1 -5.9359 -5.9359v-2.1277a5.9359 5.9359 0 0 1 5.9359 -5.9359"/>
    <path transform="matrix(.49465 -.89672 .97256 .32079 81.13 -8.602)" d="m732.31-44.782h46.501a5.9359 5.9359 0 0 1 5.9359 5.9359v2.1277a5.9359 5.9359 0 0 1 -5.9359 5.9359h-46.501a5.9359 5.9359 0 0 1 -5.9359 -5.9359v-2.1277a5.9359 5.9359 0 0 1 5.9359 -5.9359"/>
    <path transform="matrix(.49465 -.89672 .97256 .32079 81.13 -8.602)" d="m820.66-45.053h46.501a5.9359 5.9359 0 0 1 5.9359 5.9359v2.1277a5.9359 5.9359 0 0 1 -5.9359 5.9359h-46.501a5.9359 5.9359 0 0 1 -5.9359 -5.9359v-2.1277a5.9359 5.9359 0 0 1 5.9359 -5.9359"/>
    <path transform="matrix(.49465 -.89672 .97256 .32079 81.13 -8.602)" d="m904.47-44.047h46.501a5.9359 5.9359 0 0 1 5.9359 5.9359v2.1277a5.9359 5.9359 0 0 1 -5.9359 5.9359h-46.501a5.9359 5.9359 0 0 1 -5.9359 -5.9359v-2.1277a5.9359 5.9359 0 0 1 5.9359 -5.9359"/>
    <path transform="matrix(.49465 -.89672 .97256 .32079 137.84 10.586)" d="m732.31-44.782h46.501a5.9359 5.9359 0 0 1 5.9359 5.9359v2.1277a5.9359 5.9359 0 0 1 -5.9359 5.9359h-46.501a5.9359 5.9359 0 0 1 -5.9359 -5.9359v-2.1277a5.9359 5.9359 0 0 1 5.9359 -5.9359"/>
    <path transform="matrix(.49465 -.89672 .97256 .32079 137.84 10.586)" d="m820.66-45.053h46.501a5.9359 5.9359 0 0 1 5.9359 5.9359v2.1277a5.9359 5.9359 0 0 1 -5.9359 5.9359h-46.501a5.9359 5.9359 0 0 1 -5.9359 -5.9359v-2.1277a5.9359 5.9359 0 0 1 5.9359 -5.9359"/>
    <path transform="matrix(.49465 -.89672 .97256 .32079 137.84 10.586)" d="m904.47-44.047h46.501a5.9359 5.9359 0 0 1 5.9359 5.9359v2.1277a5.9359 5.9359 0 0 1 -5.9359 5.9359h-46.501a5.9359 5.9359 0 0 1 -5.9359 -5.9359v-2.1277a5.9359 5.9359 0 0 1 5.9359 -5.9359"/>
   </g>
   <path d="m369.3-976.12 243.38 89.182c20.86 7.553 19.925 24.436 13.419 38.316l-107.04 221.13c-12.743 27.431-37.568 23.381-56.238 18.74l-263.96-75.222c-16.409-6.6943-18.363-8.3379-2.4471-15.783 24.996-11.693 35.75-41.878 93.514-140.98 33.326-57.177 53.227-104.97 64.57-127.71 2.241-4.4924 13.425-8.0861 14.803-7.6715z" fill="url(#ab)"/>
   <g transform="matrix(1.04 .01915 -.01915 1.04 -36.224 -39.788)" filter="url(#h)">
    <path transform="matrix(.46681,-.88436,.95528,.2957,-6,4)" d="m732.31-44.782h46.501a5.9359 5.9359 0 0 1 5.9359 5.9359v2.1277a5.9359 5.9359 0 0 1 -5.9359 5.9359h-46.501a5.9359 5.9359 0 0 1 -5.9359 -5.9359v-2.1277a5.9359 5.9359 0 0 1 5.9359 -5.9359"/>
    <path transform="matrix(.46681,-.88436,.95528,.2957,-6,4)" d="m820.66-45.053h46.501a5.9359 5.9359 0 0 1 5.9359 5.9359v2.1277a5.9359 5.9359 0 0 1 -5.9359 5.9359h-46.501a5.9359 5.9359 0 0 1 -5.9359 -5.9359v-2.1277a5.9359 5.9359 0 0 1 5.9359 -5.9359"/>
    <path transform="matrix(.46681,-.88436,.95528,.2957,-6,4)" d="m904.47-44.047h46.501a5.9359 5.9359 0 0 1 5.9359 5.9359v2.1277a5.9359 5.9359 0 0 1 -5.9359 5.9359h-46.501a5.9359 5.9359 0 0 1 -5.9359 -5.9359v-2.1277a5.9359 5.9359 0 0 1 5.9359 -5.9359"/>
    <path transform="matrix(.46681 -.88436 .95528 .2957 51.143 22.571)" d="m732.31-44.782h46.501a5.9359 5.9359 0 0 1 5.9359 5.9359v2.1277a5.9359 5.9359 0 0 1 -5.9359 5.9359h-46.501a5.9359 5.9359 0 0 1 -5.9359 -5.9359v-2.1277a5.9359 5.9359 0 0 1 5.9359 -5.9359"/>
    <path transform="matrix(.46681 -.88436 .95528 .2957 51.143 22.571)" d="m820.66-45.053h46.501a5.9359 5.9359 0 0 1 5.9359 5.9359v2.1277a5.9359 5.9359 0 0 1 -5.9359 5.9359h-46.501a5.9359 5.9359 0 0 1 -5.9359 -5.9359v-2.1277a5.9359 5.9359 0 0 1 5.9359 -5.9359"/>
    <path transform="matrix(.46681 -.88436 .95528 .2957 51.143 22.571)" d="m904.47-44.047h46.501a5.9359 5.9359 0 0 1 5.9359 5.9359v2.1277a5.9359 5.9359 0 0 1 -5.9359 5.9359h-46.501a5.9359 5.9359 0 0 1 -5.9359 -5.9359v-2.1277a5.9359 5.9359 0 0 1 5.9359 -5.9359"/>
    <path transform="matrix(.46681 -.88436 .95528 .2957 108.29 39.714)" d="m732.31-44.782h46.501a5.9359 5.9359 0 0 1 5.9359 5.9359v2.1277a5.9359 5.9359 0 0 1 -5.9359 5.9359h-46.501a5.9359 5.9359 0 0 1 -5.9359 -5.9359v-2.1277a5.9359 5.9359 0 0 1 5.9359 -5.9359"/>
    <path transform="matrix(.46681 -.88436 .95528 .2957 108.29 39.714)" d="m820.66-45.053h46.501a5.9359 5.9359 0 0 1 5.9359 5.9359v2.1277a5.9359 5.9359 0 0 1 -5.9359 5.9359h-46.501a5.9359 5.9359 0 0 1 -5.9359 -5.9359v-2.1277a5.9359 5.9359 0 0 1 5.9359 -5.9359"/>
    <path transform="matrix(.46681 -.88436 .95528 .2957 108.29 39.714)" d="m904.47-44.047h46.501a5.9359 5.9359 0 0 1 5.9359 5.9359v2.1277a5.9359 5.9359 0 0 1 -5.9359 5.9359h-46.501a5.9359 5.9359 0 0 1 -5.9359 -5.9359v-2.1277a5.9359 5.9359 0 0 1 5.9359 -5.9359"/>
    <path transform="matrix(.46681 -.88436 .95528 .2957 164 57.429)" d="m732.31-44.782h46.501a5.9359 5.9359 0 0 1 5.9359 5.9359v2.1277a5.9359 5.9359 0 0 1 -5.9359 5.9359h-46.501a5.9359 5.9359 0 0 1 -5.9359 -5.9359v-2.1277a5.9359 5.9359 0 0 1 5.9359 -5.9359"/>
    <path transform="matrix(.46681 -.88436 .95528 .2957 164 57.429)" d="m820.66-45.053h46.501a5.9359 5.9359 0 0 1 5.9359 5.9359v2.1277a5.9359 5.9359 0 0 1 -5.9359 5.9359h-46.501a5.9359 5.9359 0 0 1 -5.9359 -5.9359v-2.1277a5.9359 5.9359 0 0 1 5.9359 -5.9359"/>
    <path transform="matrix(.46681 -.88436 .95528 .2957 164 57.429)" d="m904.47-44.047h46.501a5.9359 5.9359 0 0 1 5.9359 5.9359v2.1277a5.9359 5.9359 0 0 1 -5.9359 5.9359h-46.501a5.9359 5.9359 0 0 1 -5.9359 -5.9359v-2.1277a5.9359 5.9359 0 0 1 5.9359 -5.9359"/>
   </g>
   <g transform="matrix(1.0239 .01885 -.01885 1.0239 -30.444 -55.319)" fill="#e6e6e6" filter="url(#h)">
    <path transform="matrix(.46681,-.88436,.95528,.2957,-6,4)" d="m732.31-44.782h46.501a5.9359 5.9359 0 0 1 5.9359 5.9359v2.1277a5.9359 5.9359 0 0 1 -5.9359 5.9359h-46.501a5.9359 5.9359 0 0 1 -5.9359 -5.9359v-2.1277a5.9359 5.9359 0 0 1 5.9359 -5.9359"/>
    <path transform="matrix(.46681,-.88436,.95528,.2957,-6,4)" d="m820.66-45.053h46.501a5.9359 5.9359 0 0 1 5.9359 5.9359v2.1277a5.9359 5.9359 0 0 1 -5.9359 5.9359h-46.501a5.9359 5.9359 0 0 1 -5.9359 -5.9359v-2.1277a5.9359 5.9359 0 0 1 5.9359 -5.9359"/>
    <path transform="matrix(.46681,-.88436,.95528,.2957,-6,4)" d="m904.47-44.047h46.501a5.9359 5.9359 0 0 1 5.9359 5.9359v2.1277a5.9359 5.9359 0 0 1 -5.9359 5.9359h-46.501a5.9359 5.9359 0 0 1 -5.9359 -5.9359v-2.1277a5.9359 5.9359 0 0 1 5.9359 -5.9359"/>
    <path transform="matrix(.46681 -.88436 .95528 .2957 51.143 22.571)" d="m732.31-44.782h46.501a5.9359 5.9359 0 0 1 5.9359 5.9359v2.1277a5.9359 5.9359 0 0 1 -5.9359 5.9359h-46.501a5.9359 5.9359 0 0 1 -5.9359 -5.9359v-2.1277a5.9359 5.9359 0 0 1 5.9359 -5.9359"/>
    <path transform="translate(-21.68 -8.2248)" d="m440.59-753.19c-2.4561 0.16438-4.8487 1.6001-6 3.7812l-5.5617 10.531c1.0115 7.1715-1.8567 11.657-7.5076 14.216l-8.6494 16.378c-1.5351 2.9082-0.23516 6.0276 2.9062 7l2.0312 0.625c3.1414 0.97242 6.9024-0.59181 8.4375-3.5l8.5826-16.251c3.7102-1.2214 5.1603-5.824 7.5121-14.224l5.624-10.649c1.5351-2.9082 0.23516-6.0276-2.9062-7l-2.0312-0.625c-0.78535-0.2431-1.6188-0.33604-2.4375-0.28125z"/>
    <path transform="matrix(.46681 -.88436 .95528 .2957 51.143 22.571)" d="m904.47-44.047h46.501a5.9359 5.9359 0 0 1 5.9359 5.9359v2.1277a5.9359 5.9359 0 0 1 -5.9359 5.9359h-46.501a5.9359 5.9359 0 0 1 -5.9359 -5.9359v-2.1277a5.9359 5.9359 0 0 1 5.9359 -5.9359"/>
    <path transform="matrix(.46681 -.88436 .95528 .2957 108.29 39.714)" d="m732.31-44.782h46.501a5.9359 5.9359 0 0 1 5.9359 5.9359v2.1277a5.9359 5.9359 0 0 1 -5.9359 5.9359h-46.501a5.9359 5.9359 0 0 1 -5.9359 -5.9359v-2.1277a5.9359 5.9359 0 0 1 5.9359 -5.9359"/>
    <path transform="matrix(.46681 -.88436 .95528 .2957 108.29 39.714)" d="m820.66-45.053h46.501a5.9359 5.9359 0 0 1 5.9359 5.9359v2.1277a5.9359 5.9359 0 0 1 -5.9359 5.9359h-46.501a5.9359 5.9359 0 0 1 -5.9359 -5.9359v-2.1277a5.9359 5.9359 0 0 1 5.9359 -5.9359"/>
    <path transform="matrix(.46681 -.88436 .95528 .2957 108.29 39.714)" d="m904.47-44.047h46.501a5.9359 5.9359 0 0 1 5.9359 5.9359v2.1277a5.9359 5.9359 0 0 1 -5.9359 5.9359h-46.501a5.9359 5.9359 0 0 1 -5.9359 -5.9359v-2.1277a5.9359 5.9359 0 0 1 5.9359 -5.9359"/>
    <path transform="matrix(.46681 -.88436 .95528 .2957 164 57.429)" d="m732.31-44.782h46.501a5.9359 5.9359 0 0 1 5.9359 5.9359v2.1277a5.9359 5.9359 0 0 1 -5.9359 5.9359h-46.501a5.9359 5.9359 0 0 1 -5.9359 -5.9359v-2.1277a5.9359 5.9359 0 0 1 5.9359 -5.9359"/>
    <path transform="matrix(.46681 -.88436 .95528 .2957 164 57.429)" d="m820.66-45.053h46.501a5.9359 5.9359 0 0 1 5.9359 5.9359v2.1277a5.9359 5.9359 0 0 1 -5.9359 5.9359h-46.501a5.9359 5.9359 0 0 1 -5.9359 -5.9359v-2.1277a5.9359 5.9359 0 0 1 5.9359 -5.9359"/>
    <path transform="matrix(.46681 -.88436 .95528 .2957 164 57.429)" d="m904.47-44.047h46.501a5.9359 5.9359 0 0 1 5.9359 5.9359v2.1277a5.9359 5.9359 0 0 1 -5.9359 5.9359h-46.501a5.9359 5.9359 0 0 1 -5.9359 -5.9359v-2.1277a5.9359 5.9359 0 0 1 5.9359 -5.9359"/>
   </g>
   <g fill="#999">
    <path transform="matrix(.49076 -.89409 .96473 .31974 -32.234 -55.92)" d="m732.31-44.782h46.501a5.9359 5.9359 0 0 1 5.9359 5.9359v2.1277a5.9359 5.9359 0 0 1 -5.9359 5.9359h-46.501a5.9359 5.9359 0 0 1 -5.9359 -5.9359v-2.1277a5.9359 5.9359 0 0 1 5.9359 -5.9359"/>
    <path transform="matrix(.49076 -.89409 .96473 .31974 -32.234 -55.92)" d="m820.66-45.053h46.501a5.9359 5.9359 0 0 1 5.9359 5.9359v2.1277a5.9359 5.9359 0 0 1 -5.9359 5.9359h-46.501a5.9359 5.9359 0 0 1 -5.9359 -5.9359v-2.1277a5.9359 5.9359 0 0 1 5.9359 -5.9359"/>
    <path transform="matrix(.49076 -.89409 .96473 .31974 -32.234 -55.92)" d="m904.47-44.047h46.501a5.9359 5.9359 0 0 1 5.9359 5.9359v2.1277a5.9359 5.9359 0 0 1 -5.9359 5.9359h-46.501a5.9359 5.9359 0 0 1 -5.9359 -5.9359v-2.1277a5.9359 5.9359 0 0 1 5.9359 -5.9359"/>
    <path transform="matrix(.49076 -.89409 .96473 .31974 25.458 -35.892)" d="m732.31-44.782h46.501a5.9359 5.9359 0 0 1 5.9359 5.9359v2.1277a5.9359 5.9359 0 0 1 -5.9359 5.9359h-46.501a5.9359 5.9359 0 0 1 -5.9359 -5.9359v-2.1277a5.9359 5.9359 0 0 1 5.9359 -5.9359"/>
    <path transform="matrix(.49076 -.89409 .96473 .31974 25.458 -35.892)" d="m820.66-45.053h15.713c4.1609 4.3246 9.5998 4.4096 16.393 0h14.394c3.2885 0 5.9359 2.6474 5.9359 5.9359v2.1277c0 3.2885-2.6474 5.9359-5.9359 5.9359h-14.857c-8.0202 1.4096-13.417 2.1121-15.656 0h-15.988c-3.2885 0-5.9359-2.6474-5.9359-5.9359v-2.1277c0-3.2885 2.6474-5.9359 5.9359-5.9359z"/>
    <path transform="matrix(.49076 -.89409 .96473 .31974 25.458 -35.892)" d="m904.47-44.047h46.501a5.9359 5.9359 0 0 1 5.9359 5.9359v2.1277a5.9359 5.9359 0 0 1 -5.9359 5.9359h-46.501a5.9359 5.9359 0 0 1 -5.9359 -5.9359v-2.1277a5.9359 5.9359 0 0 1 5.9359 -5.9359"/>
    <path transform="matrix(.49076 -.89409 .96473 .31974 83.176 -17.323)" d="m732.31-44.782h46.501a5.9359 5.9359 0 0 1 5.9359 5.9359v2.1277a5.9359 5.9359 0 0 1 -5.9359 5.9359h-46.501a5.9359 5.9359 0 0 1 -5.9359 -5.9359v-2.1277a5.9359 5.9359 0 0 1 5.9359 -5.9359"/>
    <path transform="matrix(.49076 -.89409 .96473 .31974 83.176 -17.323)" d="m820.66-45.053h46.501a5.9359 5.9359 0 0 1 5.9359 5.9359v2.1277a5.9359 5.9359 0 0 1 -5.9359 5.9359h-46.501a5.9359 5.9359 0 0 1 -5.9359 -5.9359v-2.1277a5.9359 5.9359 0 0 1 5.9359 -5.9359"/>
    <path transform="matrix(.49076 -.89409 .96473 .31974 83.176 -17.323)" d="m904.47-44.047h46.501a5.9359 5.9359 0 0 1 5.9359 5.9359v2.1277a5.9359 5.9359 0 0 1 -5.9359 5.9359h-46.501a5.9359 5.9359 0 0 1 -5.9359 -5.9359v-2.1277a5.9359 5.9359 0 0 1 5.9359 -5.9359"/>
    <path transform="matrix(.49076 -.89409 .96473 .31974 139.43 1.803)" d="m732.31-44.782h46.501a5.9359 5.9359 0 0 1 5.9359 5.9359v2.1277a5.9359 5.9359 0 0 1 -5.9359 5.9359h-46.501a5.9359 5.9359 0 0 1 -5.9359 -5.9359v-2.1277a5.9359 5.9359 0 0 1 5.9359 -5.9359"/>
    <path transform="matrix(.49076 -.89409 .96473 .31974 139.43 1.803)" d="m820.66-45.053h46.501a5.9359 5.9359 0 0 1 5.9359 5.9359v2.1277a5.9359 5.9359 0 0 1 -5.9359 5.9359h-46.501a5.9359 5.9359 0 0 1 -5.9359 -5.9359v-2.1277a5.9359 5.9359 0 0 1 5.9359 -5.9359"/>
    <path transform="matrix(.49076 -.89409 .96473 .31974 139.43 1.803)" d="m904.47-44.047h46.501a5.9359 5.9359 0 0 1 5.9359 5.9359v2.1277a5.9359 5.9359 0 0 1 -5.9359 5.9359h-46.501a5.9359 5.9359 0 0 1 -5.9359 -5.9359v-2.1277a5.9359 5.9359 0 0 1 5.9359 -5.9359"/>
   </g>
   <path d="m393.02-798.11c3.4331-2.0742 6.2255-3.9441 7.9465-14.231l12.148 3.9904c-1.8849 6.6661-3.9951 12.945-7.9466 14.231z" fill="url(#aa)"/>
   <path transform="matrix(.98514 .27981 -.40755 .93952 -52.434 -67.045)" d="m56.159-685.31h37.698a7.5837 7.5837 0 0 1 7.5837 7.5837v0.49526a7.5837 7.5837 0 0 1 -7.5837 7.5837h-37.698a7.5837 7.5837 0 0 1 -7.5837 -7.5837v-0.49526a7.5837 7.5837 0 0 1 7.5837 -7.5837" fill="#fff" filter="url(#j)" opacity=".5531"/>
   <path transform="matrix(.98514 .27981 -.40755 .93952 -52.434 -67.045)" d="m57.515-684.75h34.986a7.0382 7.0382 0 0 1 7.0382 7.0382v0.45964a7.0382 7.0382 0 0 1 -7.0382 7.0382h-34.986a7.0382 7.0382 0 0 1 -7.0382 -7.0382v-0.45964a7.0382 7.0382 0 0 1 7.0382 -7.0382" filter="url(#i)" opacity=".80088"/>
   <path transform="matrix(.98514 .27981 -.40755 .93952 -52.434 -67.045)" d="m57.466-687.83h31.223a6.9173 6.9173 0 0 1 6.9173 6.9173v0.98819a6.9173 6.9173 0 0 1 -6.9173 6.9173h-31.223a6.9173 6.9173 0 0 1 -6.9173 -6.9173v-0.98819a6.9173 6.9173 0 0 1 6.9173 -6.9173" fill="#333" opacity=".82168"/>
   <path transform="matrix(.98514 .27981 -.40755 .93952 -52.434 -67.045)" d="m56.893-687.73h31.626a6.0628 6.0628 0 0 1 6.0628 6.0628 6.0628 6.0628 0 0 1 -6.0628 6.0628h-31.626a6.0628 6.0628 0 0 1 -6.0628 -6.0628 6.0628 6.0628 0 0 1 6.0628 -6.0628" fill="url(#z)" opacity=".82168"/>
   <path transform="matrix(.96608 .33982 -.46452 .91269 53.016 -337.61)" d="m56.159-685.31h37.698a7.5837 7.5837 0 0 1 7.5837 7.5837v0.49526a7.5837 7.5837 0 0 1 -7.5837 7.5837h-37.698a7.5837 7.5837 0 0 1 -7.5837 -7.5837v-0.49526a7.5837 7.5837 0 0 1 7.5837 -7.5837" fill="#666" filter="url(#j)" opacity=".5531"/>
   <path transform="matrix(.96608 .33982 -.46452 .91269 53.016 -337.61)" d="m57.515-684.75h34.986a7.0382 7.0382 0 0 1 7.0382 7.0382v0.45964a7.0382 7.0382 0 0 1 -7.0382 7.0382h-34.986a7.0382 7.0382 0 0 1 -7.0382 -7.0382v-0.45964a7.0382 7.0382 0 0 1 7.0382 -7.0382" filter="url(#i)" opacity=".80088"/>
   <path transform="matrix(.96608 .33982 -.46452 .91269 -104.06 -93.1)" d="m86.117-966.39h31.223a6.9173 6.9173 0 0 1 6.9173 6.9173v0.98819a6.9173 6.9173 0 0 1 -6.9173 6.9173h-31.223a6.9173 6.9173 0 0 1 -6.9173 -6.9173v-0.98819a6.9173 6.9173 0 0 1 6.9173 -6.9173" fill="#333" opacity=".82168"/>
   <path transform="matrix(.96608 .33982 -.46452 .91269 -104.06 -93.1)" d="m85.545-966.3h31.626a6.0628 6.0628 0 0 1 6.0628 6.0628 6.0628 6.0628 0 0 1 -6.0628 6.0628h-31.626a6.0628 6.0628 0 0 1 -6.0628 -6.0628 6.0628 6.0628 0 0 1 6.0628 -6.0628" fill="url(#y)" opacity=".82168"/>
   <g transform="matrix(1.0239 .01885 -.01885 1.0239 -52.488 -64.15)">
    <g transform="matrix(.28618 -.85673 1.0501 .35076 0 0)" fill="#e6e6e6" font-family="Segoe UI" font-size="20.69" letter-spacing="0" word-spacing="0">
     <path d="m798.84 61.579h1.9094v12.184h-1.5053v-10.8l-4.5563 3.647-0.87893-0.93954z" fill="#e6e6e6"/>
    </g>
    <g transform="matrix(.52558,-.89058,.98155,.23945,0,0)" fill="#e6e6e6" font-family="Segoe UI" font-size="18.281" letter-spacing="0" word-spacing="0">
     <path d="m799.72065-78.38945c.0298-1.02952.11009-1.74661.24101-2.15128 .25589-.78553.75578-1.27351 1.49965-1.46394 .37491-.10711.91942-.19043 1.63355-.24994l1.61569-.14282 1.95489-.16068c.74982-.05355 1.40145-.11604 1.9549-.18746 .61889-.07736 1.02951-.27671 1.23185-.59807 .18447-.29159.27969-.74982.28565-1.37468-1e-005-.60699-.0744-1.04439-.22316-1.31219-.17259-.32134-.55048-.5326-1.13366-.63378-.71413-.11901-1.60975-.17852-2.68687-.17853l-1.57999.01785c-1.23185.01786-2.02928.09225-2.39229.22316-.39872.14283-.66949.41658-.81231.82124-.0833.24995-.13092.64569-.14282,1.18722l-.0179.82124h-1.33004l.0178-.97299c.0119-.48797.0521-.91942.12051-1.29434s.2306-.69328.48649-.95513c.49988-.53558 1.37468-.848 2.62439-.93728 .96405-.0714 1.92216-.11008 2.87432-.11604 1.70197.01191 2.94275.12498 3.72234.33921 1.21399.32731 1.81503,1.3003 1.80314,2.91896-.006,1.1902-.23061,2.00697-.67394,2.45032s-1.25121.70966-2.42354.79892c-.51179.04166-1.1426.0982-1.89241.1696-1.10689.10712-1.89837.17556-2.37444.20531l-1.45502.11604c-.51774.04761-.90009.17556-1.14705.38384s-.3883.57725-.42401,1.10688l-.0536,1.19615h10.47968v1.20507h-11.80079z" fill="#e6e6e6"/>
     <path d="m823.02-83.375h1.0199l3.6396 6.2178h-0.89566l-0.78176-1.3616h-4.9442l-0.82318 1.3616h-0.85424zm-1.5739 4.1728h4.1573l-2.0709-3.505z"/>
     <path d="m832.9771-83.37543 .86459.0052c.80419.01726 1.27704.32444 1.41856.92154 .0552.23125.0828.47113.0828.71963 .003.57985-.18811.96469-.57467,1.15452l-.28475.12425c.15877.03452.29855.07248.41936.1139 .44523.15532.6713.64888.67821,1.48068-.0104.75933-.21399,1.24598-.61091,1.45998-.30719.16222-.85079.2416-1.63082.23815h-4.83034v-6.21783zm-3.67583,5.53444h4.06412c.20363,1e-006 .39346-.0052.56949-.01553 .34859-.01381.58502-.11908.70928-.31581 .10008-.16222.14841-.42626.14496-.79211-1e-005-.45904-.11218-.75932-.33652-.90084-.13806-.08628-.32962-.13288-.57467-.13978-.14497-.0034-.41936-.0052-.82318-.0052h-3.75348zm0-4.85105v1.99841h3.7949c.53497.0035.90601-.04832 1.1131-.15532 .22779-.11735.34169-.40554.3417-.8646-.007-.4763-.13807-.76967-.39347-.88013-.13806-.05867-.47458-.09146-1.00956-.09837z"/>
     <path d="m843.83372-79.27508v.409c-.007.53153-.0984.91464-.2744,1.14934-.20364.26921-.55051.44524-1.04062.52807-.42453.07593-1.2201.11045-2.38669.10355-.6903,0-1.25634-.01553-1.69813-.04659-.34515-.02071-.64715-.10182-.90601-.24333-.23815-.1208-.409-.29338-.51255-.51772-.22089-.44524-.33306-1.30811-.33651-2.58861 0-.56949.0293-1.06132.088-1.47551 .0414-.31753.13633-.57639.28475-.77658 .17602-.2485.41245-.4159.70927-.50219 .49701-.14496 1.47378-.21571 2.93031-.21227 .42797.0035.81109.0086 1.14934.01553 .21398.0069.41072.02072.5902.04142 .8249.1001 1.27186.58848 1.3409,1.46515l.0311.51772h-.79211v-.16567c-.003-.39692-.0863-.69547-.24851-.89566-.13461-.16567-.42626-.2554-.87495-.26921-.5764-.01725-1.08031-.02588-1.51174-.02589-.36932,6e-006-.79385.0078-1.2736.0233s-.81973.05954-1.01991.13202c-.32099.1139-.50392.38312-.54878.80765-.0449.38312-.0656.82663-.0621,1.33054-.003.43834.009.85597.0362,1.25289 .0414.59711.15618.98453.34428,1.16228s.58416.2718 1.18818.28216c.41762.0069.83525.0086 1.25288.0052l1.62565-.03106c.19327-.0138.37275-.04487.53843-.09319 .30027-.07938.48147-.26404.5436-.55396 .0207-.09319.0345-.36931.0414-.82835z"/>
    </g>
    <g transform="matrix(.53631,-.87275,1.0016,.23466,0,0)" fill="#e6e6e6" font-family="Segoe UI" font-size="18.255" letter-spacing="0" word-spacing="0">
     <path d="m896.92928-98.19268c-.006.85571.0772,1.41429.24958,1.67576 .23175.36249.74577.55859 1.54205.5883l1.18551.03566 2.30863.01783 2.24622-.05348c.68337-.01188 1.14985-.14707 1.39944-.40557s.37436-.73834.37437-1.43955c-.006-.41596-.0267-.74577-.0624-.98941-.0594-.39219-.23177-.6596-.51699-.80222s-.92703-.20798-1.92534-.21393h-3.62784v-1.20333h3.19107c.6596.006 1.14242-.003 1.44846-.0267s.58681-.12478.84234-.30306c.33871-.23175.50806-.61503.50807-1.14985-.006-.39219-.0267-.70714-.0624-.94485-.0535-.36247-.21394-.618-.48134-.76657-.32684-.17232-.94485-.26442-1.85403-.27632-.84383-.0119-1.45292-.0178-1.82729-.0178l-2.02338.0268c-1.18255.0238-1.92535.10103-2.22841.23175s-.50213.42192-.59721.87353c-.0416.22582-.0713.59722-.0891,1.1142h-1.32813l.0981-1.23899c.0654-.7309.36545-1.25384.90027-1.56879 .45162-.26146 1.06072-.43379 1.82729-.51699 .32089-.0357.75171-.0624 1.29247-.0802 .79628-.0297 1.55988-.0446 2.2908-.0446 .71308,1e-005 1.41429.0149 2.10361.0446 .58829.0238 1.11717.0921 1.58663.20501 1.13498.26742 1.70842,1.17363 1.72032,2.71865-.006.64773-.0921,1.12015-.25849,1.41726-.17829.3209-.5586.60019-1.14094.83788 .65365.24959 1.06962.55859 1.2479.92702 .19609.41597.29414.93593.29415,1.55988 .006.86759-.0951,1.50343-.30306,1.90751-.27931.55264-.79035.9181-1.53314,1.09637s-2.02637.27335-3.85068.28524c-2.09173,0-3.52979-.06537-4.31419-.1961-1.24791-.18421-1.8986-.94781-1.95208-2.2908-.0119-.1129-.0149-.45756-.009-1.03398z" fill="#e6e6e6"/>
     <path d="m920.18867-101.00547c.84094.003 1.40789.0482 1.70085.13441 .60657.17233.9943.55489 1.16319,1.14768 .13441.46873.20334,1.12356.20679,1.96451-1e-005,1.02017-.12408,1.73015-.37222,2.12994-.32053.51698-.95814.79097-1.91281.82199l-.8375.01034h-4.31675v-6.20887zm-3.57747.6824v4.84406h3.26211l1.01844-.01034c.47561-.01034.81854-.08272 1.02878-.21713 .26193-.16888.42392-.47562.48596-.92022 .0414-.30329.062-.62898.062-.97708-1e-005-.4446-.0241-.90815-.0724-1.39066-.0276-.29984-.0896-.54971-.18611-.74961-.10685-.23091-.29985-.38772-.57901-.47044-.22403-.0689-.73756-.10512-1.54059-.10857z"/>
     <path d="m930.67-101.01v0.6824h-5.4334v1.9955h5.1542v0.68241h-5.1542v2.1661h5.4334v0.68241h-6.2244v-6.2089z"/>
     <path d="m937.69-101.01v0.6824h-5.0508v1.9955h4.7872v0.68241h-4.7872v2.8485h-0.79098v-6.2089z"/>
    </g>
    <g transform="matrix(.52636,-.88926,.98301,.2391,0,0)" fill="#e6e6e6" font-family="Segoe UI" font-size="19.761" letter-spacing="0" word-spacing="0">
     <path d="m716.4-24.072h2.0552v7.8253h1.8719v1.3026h-1.8719v2.5087h-1.4377v-2.5087h-9.9578v-1.8044zm-7.7674 7.8253h8.385v-6.6674z" fill="#e6e6e6"/>
     <path d="m737.25794-15.782c.0149.35816.0242.62492.028.80027-.007.53724-.0522.96815-.13431,1.29274-.12312.48128-.37682.80959-.76109.98494-.3619.17535-.78721.27981-1.27595.31339-.33951.02238-.77788.03358-1.31512.03358-.82825.0037-1.70313-.01306-2.62464-.05037-1.03718-.02985-1.67888-.41039-1.92511-1.14164-.14178-.42158-.2108-1.21625-.20707-2.38401-.004-.70139.0448-1.31512.14551-1.84117 .11565-.65662.45702-1.07075 1.02411-1.24237 .27608-.0858.54657-.13803.81146-.1567 .60066-.0373 1.2461-.05782 1.93631-.06156 1.01105.0037 1.85235.03359 2.52391.08954 .34323.02985.65662.11753.94017.26302 .50738.25743.7816.74617.82265,1.46622l.0112.2966h-.85623c0-.18654-.002-.31152-.006-.37495-.0224-.56708-.38429-.88793-1.08568-.96256-.29101-.02984-.82825-.0429-1.61172-.03917l-2.12658.01119c-.51859,6e-006-.89727.07089-1.13604.21266-.27608.16416-.43091.49994-.46449,1.00733-.0522.58575-.0765,1.16403-.0728,1.73484 0,.7014.028,1.20506.0839,1.51099 .097.51486.45702.79653 1.08007.84503 .58574.05223 1.22558.07835 1.91952.07835h1.74044c.65289,0 1.0838-.08021 1.29273-.24064 .25742-.194.39173-.6044.40293-1.23118l.0112-.47568h-3.48646v-.73871z"/>
     <path d="m739.36-19.157v2.8989h6.2566v-2.8989h0.85623v6.7211h-0.85623v-3.0835h-6.2566v3.0835h-0.85623v-6.7211z"/>
     <path d="m747.78-19.157h0.85623v6.7211h-0.85623z"/>
    </g>
    <g transform="matrix(.51879,-.90223,.96888,.24258,0,0)" fill="#e6e6e6" font-family="Segoe UI" font-size="18.862" letter-spacing="0" word-spacing="0">
     <path d="m790.19896-10.12864c0,.34385.0184.64164.0553.89338 .086.76137.56488,1.18503 1.43677,1.27099 .39296.04912.84425.07982 1.35388.0921 1.12977.04298 2.09375.0614 2.89197.05526 1.33852,1.1e-006 2.23803-.05833 2.69855-.17499 .50347-.12894.85345-.38682 1.04994-.77365 .10437-.22104.1627-.66926.175-1.34467-2e-005-.5219-.0246-.97626-.0737-1.36309-.0553-.51576-.2886-.93021-.69997-1.24336-.24561-.17806-.71533-.27937-1.40914-.30393l-1.98017-.07368-2.2012.01842c-.73681,6e-006-1.31705.02764-1.74071.08289-.62014.08597-1.05916.40832-1.31704.96706h-1.3723l.0737-5.78393h11.72442v1.24336h-10.35212l-.0737,3.2972c.44822-.4912.92101-.78285 1.41835-.87496s1.06837-.15042 1.71308-.17499c.54032-.01227 1.06529-.01841 1.57492-.01842 1.5657.0061 2.74152.06448 3.52746.17499 1.41834.19035 2.23496.90259 2.44988,2.13674 .0737.43595.1105.91794.11052,1.44598-2e-005,.49735-.0276,1.01004-.0829,1.53808-.0798.74909-.30548,1.28788-.67694,1.61637s-.92256.55414-1.65321.67694c-.64472.11052-1.83896.16885-3.58272.17499-.60787.00614-1.14205.00307-1.60255-.00921-.84733-.00614-1.62712-.05219-2.33936-.13815-.42367-.04298-.80742-.14122-1.15126-.29472-.57103-.23332-.95785-.66926-1.16047-1.30783-.0982-.29472-.15043-.89644-.15657-1.80517z" fill="#e6e6e6"/>
     <path d="m810.03061-8.52935c.0107.45227.0961.7603.2564.92411 .18162.18162.48966.27065.92412.26708l1.01492.00534c.58758.00356 1.00958-.0089 1.26598-.03739 .35611-.03205.60539-.14422.74784-.33653 .10327-.13888.16024-.41309.17093-.82262l.0107-.62498v-3.96354h.81728v3.99559c-1e-005,.29202-.002.52883-.005.71045-.0107.75496-.28133,1.26242-.81193,1.52238-.35256.1745-.95261.26174-1.80016.26174-1.08258.00356-1.84644-.04095-2.29158-.13354-.40954-.08191-.71401-.29557-.91343-.641-.12821-.21723-.19409-.59115-.19765-1.12176l-.016-.53951h.81728z"/>
     <path d="m817.38-13.118v2.767h1.1431l4.065-2.767h1.3888l-4.5778 3.0768 4.9785 3.3386h-1.5064l-4.3481-2.9433h-1.1431v2.9433h-0.81728v-6.4154z"/>
     <path d="m825.87-13.118v5.7103h5.1334v0.7051h-5.9506v-6.4154z"/>
    </g>
    <g transform="matrix(.51933,-.9013,.96988,.24233,0,0)" fill="#e6e6e6" font-family="Segoe UI" font-size="18.198" letter-spacing="0" word-spacing="0">
     <path d="m868.73735-14.84661c.42059-.55091.83823-.88561 1.2529-1.0041 .33766-.1007.68124-.1629 1.03076-.1866 .76417-.04738 1.63498-.07404 2.61242-.07997 1.90156.0059 3.13668.07998 3.70538.22215 .65162.15995 1.12257.52723 1.41285,1.10184 .19547.39098.29914.99521.311,1.81271-1e-005,.86489-.0918,1.51059-.27546,1.93711-.26066.59831-.75086,1.00114-1.4706,1.20847s-2.01264.311-3.87866.311c-.68125-1e-007-1.32695-.00889-1.9371-.02666-.50946-.00592-.98337-.04147-1.42173-.10663-.5213-.05924-.98929-.20437-1.40396-.4354-.72271-.38505-1.11961-1.1048-1.1907-2.15925-.0533-.61608-.077-1.30917-.0711-2.07928-.006-.82934.0118-1.80085.0533-2.91454 .0237-.91227.17475-1.58463.45318-2.01708 .32581-.49167.92116-.82341 1.78605-.99521 .77602-.15401 2.17405-.23102 4.1941-.23103 1.71199-.0059 2.87899.10664 3.50101.33766 .59237.22512 1.01297.61017 1.26178,1.15515 .15401.34359.2636.91821.32878,1.72385h-1.32399c-.0415-.56868-.0918-.94189-.15106-1.11961-.11849-.3732-.38802-.61015-.80861-.71086-.28435-.06515-.61017-.10662-.97744-.1244-.97744-.03553-1.91934-.05627-2.82568-.0622-.60424.0059-1.08704.01482-1.44839.02666l-.9419.0622c-.62201.05333-1.05149.21031-1.28844.47095-.2725.30213-.41763.73457-.4354,1.29733l-.0355,1.47504c0,.25473-.006.62497-.0178,1.11073zm.0622,2.05262c0,.77603.19253,1.32102.57758,1.63499 .27842.22511.85303.34951 1.72385.3732l2.33696.0622c1.33879,2e-006 2.29105-.05183 2.85679-.1555s.96114-.34506 1.18626-.72419c.16585-.27842.25175-.7464.25769-1.40396-.0178-1.06037-.39099-1.65868-1.11962-1.79493-.32582-.05923-.69014-.09478-1.09295-.10663-.27251-.0059-.72272-.0089-1.35064-.0089-.66348,5e-006-1.48394.01185-2.46137.03554-.61017.01778-1.01891.03555-1.22624.05331-.49761.04147-.87674.16884-1.13739.38209-.35543.27843-.53907.82935-.55092,1.65276z" fill="#e6e6e6"/>
     <path d="m888.5-15.838 3.6333 5.3701l3.6333-5.3701h1.1699v6.1895h-0.78851v-5.4628l-3.7055 5.4628h-0.61844l-3.7055-5.4628v5.4628h-0.7885v-6.1895z"/>
     <path d="m899.45-15.838 5.7205 5.4938v-5.4938h0.7885v6.1895h-1.1699l-5.7205-5.4732v5.4732h-0.78851v-6.1895z"/>
     <path d="m907.1569-12.7509c0-.38137.0138-.77476.0412-1.18018 .024-.4329.10136-.79365.23192-1.08226 .1065-.25424.28344-.44664.53082-.57721 .23019-.12368.47413-.2027.73182-.23707 .36075-.04466.77304-.07043 1.23687-.0773 .33326-.0034.73181-.0051 1.19564-.0052l1.1441.0052c.94483.01375 1.5856.10995 1.92231.2886 .481.25769.7507.81943.80912,1.68524 .024.39511.0378.78851.0412,1.18018-.003.39511-.0172.79023-.0412,1.18534-.0275.43634-.1048.79881-.23192,1.08742-.20958.49818-.76961.78163-1.68008.85035-.62188.04467-1.28326.06184-1.98415.05154l-1.17502-.01546c-.48445-.01031-.89674-.03608-1.23687-.0773-.28861-.02749-.53255-.10479-.73182-.23191-.46039-.27142-.71464-.8263-.76274-1.66462-.0275-.40542-.0412-.80053-.0412-1.18534zm.78851.0052c-.007.66997.0155,1.16386.067,1.48167s.14859.548.29118.69059 .36848.22762.6777.2551c.25424.03092.54456.04638.87096.04638l1.24718.01546 1.24718-.01546c.32295,1e-006 .61327-.01546.87096-.04638 .38824-.03092.65279-.16492.79366-.40198 .11337-.18896.18381-.48959.2113-.90189 .0206-.37106.0309-.74384.0309-1.11834s-.007-.74899-.0309-1.12349c-.0241-.41229-.0945-.7112-.2113-.89673-.15118-.2405-.41573-.37793-.79366-.41229-.24738-.02061-.5377-.03435-.87096-.04123l-1.25233-.01546-1.24203.01546c-.69402.01375-1.14411.07044-1.35025.17007-.31609.15118-.49131.54457-.52567,1.18018-.024.38137-.0344.75415-.0309,1.11834z"/>
    </g>
    <g transform="matrix(.50777,-.92181,.9483,.24785,0,0)" fill="#e6e6e6" font-family="Segoe UI" font-size="17.692" letter-spacing="0" word-spacing="0">
     <path d="m696.37 62.089v1.5981l-7.7141 8.8199h-1.6759l8.0165-9.2518h-10.34v-1.1662z" fill="#e6e6e6"/>
     <path d="m708.80819,66.49004 .6413.02004c.17034.01003.32566.02673.46595.0501 .45425.07683.7582.30396.91185.68138 .10688.26721.16199.65801.16534,1.17238-.01.63462-.1119,1.07051-.30562,1.30766-.24718.30729-.65801.46428-1.23251.47096-.14697.0067-.36073.0084-.6413.005h-3.65241v2.30969h-.76656v-6.01722zm-3.6474.66134v2.38484h3.74259c.56448,3e-006 .92605-.07682 1.08471-.23047s.23797-.51438.23798-1.0822c.003-.45091-.10689-.7582-.33067-.92187-.13361-.09686-.46428-.14696-.99202-.1503z"/>
     <path d="m718.97383,72.09643c-.33068.29059-1.06049.44591-2.18944.46595l-1.11226.01503-1.01206-.01002c-.90517-.02004-1.52309-.1002-1.85376-.24049-.5244-.22379-.81666-.73984-.87678-1.54814-.0367-.45759-.0551-.9536-.0551-1.48802-.003-.33401.003-.61792.02-.85173 .0134-.26721.0518-.52272.11523-.76656 .13694-.55445.43922-.9035.90684-1.04713 .23381-.07348.48766-.12024.76155-.14028 .61792-.04341 1.29095-.06513 2.0191-.06513 .77156.0033 1.48467.03341 2.13934.09018 .59788.05011 1.01539.23047 1.25255.5411 .21709.28725.35237.72982.40582,1.3277 .0267.30395.0417.71646.0451,1.23751-.003.30395-.008.54277-.015.71645-.0167.29393-.0468.56615-.0902.81666l-.0451.24049 .56113.35071-.32566.50102-.49099-.30061zm-2.85079-2.15437 .31564-.49601 2.25458,1.44794l.0301-.38077c.0334-.43755.0501-.82668.0501-1.16737 0-.35739-.0159-.70643-.0476-1.04713s-.0977-.59454-.1979-.76155c-.13362-.21376-.35907-.33735-.67638-.37075-.51104-.05344-1.13063-.08183-1.85877-.08517-.64799,5e-006-1.39283.01838-2.23454.05511-.34737.01336-.59621.08351-.74651.21043-.17035.14363-.27557.37744-.31565.70142s-.0585.84839-.0551,1.57319c0,.57116.0301,1.05214.0902,1.44293 .0802.51104.41918.78326 1.01706.81666l.73149.02505 1.21747.01002c.41751.01002.90349.0017 1.45796-.02505 .27722-.01336.52105-.0334.73148-.06012 .27723-.04008.48097-.15699.61124-.35071z"/>
     <path d="m725.77264,66.49004c.7916.0033 1.33938.09186 1.64333.26554 .26052.15031.42753.36575.50102.64631 .0467.18705.0718.46595.0751.8367 0,.50102-.0601.8534-.18036,1.05715-.15366.26053-.45093.4409-.89181.5411l.31063.09018c.15029.0501.27555.12359.37576.22045 .19038.18371.29392.49267.31063.92688 .007.20041.0117.44925.015.74652l.01.68639h-.76656v-.58619-.44591c-.007-.36741-.0351-.6246-.0852-.77157-.0902-.27389-.26721-.45258-.53108-.53609-.12359-.0334-.25218-.05177-.38578-.05511h-4.32378v2.39486h-.76656v-6.01722zm-3.92297.66134v2.29967h3.93299l.51604-.01503c.39747-.02004.658-.13193.78159-.33568 .0969-.16032.14529-.45091.1453-.87177 .007-.48097-.13027-.78993-.41084-.92688-.20041-.09686-.55279-.14696-1.05714-.1503z"/>
     <path d="m729.58037,70.58837c.003.17703.0117.33234.025.46595 .0167.29393.14696.50102.39079.62126 .17035.08684.42086.14697.75153.18037 .40749.04342.92688.06346 1.55816.06012 .67136,0 1.14733-.01336 1.4279-.04008 .68138-.06012 1.05714-.28892 1.12729-.68639 .0167-.08684.025-.19373.025-.32065-.003-.50436-.11691-.80831-.34069-.91185-.10689-.05344-.23882-.09018-.3958-.11022-.25386-.03674-.47598-.05678-.66636-.06012-.11023-.0033-.42587-.0067-.94692-.01002l-1.21246-.03006c-.4075-.01002-.75487-.03006-1.04212-.06012-.35405-.03006-.65633-.12859-.90684-.2956-.33401-.20374-.50102-.59955-.50102-1.18741 0-.44757.0685-.79327.20542-1.0371 .16367-.29058.45092-.48765.86175-.5912 .39079-.09686 1.10224-.14863 2.13433-.15532 .4576.0033.89348.01337 1.30766.03006 .27722.01337.53441.03508.77157.06513 .49433.06013.8584.23715 1.09221.53108 .19706.24717.29727.63964.30061,1.17739h-.76655c-.003-.1503-.0134-.28391-.0301-.40081-.0501-.40415-.38245-.63295-.99703-.68639-.39748-.03674-.84171-.05511-1.3327-.05511-.62461,5e-006-1.21748.02005-1.77862.06012-.68138.04677-1.01539.3574-1.00203.93189-.007.46428.14863.74485.46595.84171 .19038.06347.41918.10021.68639.11022l.80163.04008 .96195.03006 1.23751.03006c.72814.03341 1.21914.17202 1.47299.41585s.38244.64464.38579,1.20244c-.01.94191-.36575,1.4947-1.06717,1.65837-.33068.0835-.69642.1336-1.09723.1503-.33067.02004-.68973.02839-1.07718.02505-.46094.0033-.86009-.0084-1.19744-.03507-.28057-.0167-.56114-.04342-.8417-.08016s-.52774-.09686-.74151-.18037c-.48098-.167-.74652-.52106-.79662-1.06216-.0167-.13026-.0234-.34069-.02-.63128z"/>
    </g>
    <g transform="matrix(.50691,-.92338,.94668,.24827,0,0)" fill="#e6e6e6" font-family="Segoe UI" font-size="18.196" letter-spacing="0" word-spacing="0">
     <path d="m773.74132,64.98425c-.63972-.21916-1.07212-.47386-1.2972-.76411-.24878-.32577-.36725-.81149-.3554-1.45713-.006-.85887.0977-1.49266.31097-1.90138 .2784-.51532.82038-.83814 1.62595-.96846 .47386-.07699.99511-.1303 1.56375-.15993 .6101-.0296 1.30609-.04441 2.08797-.04442 1.00103,1e-005 1.95468.02667 2.86096.07996 1.68221.09478 2.65363.53311 2.91427,1.31498 .15991.46795.23988.98328.23989,1.54598 .006.71673-.0741,1.21429-.23989,1.49267-.20733.34356-.61604.63084-1.22613.86184 .23692.08886.44424.17178.62195.24878 .49162.22509.78483.60122.87961,1.12839 .077.40871.11549.84111.11551,1.2972 .0118,1.3979-.36726,2.24493-1.13728,2.5411-.51534.21916-1.03363.34651-1.55487.38205-.63973.05331-1.42752.077-2.3634.07108-2.87281-.0059-4.66165-.12143-5.36652-.34651-.95957-.28432-1.44529-1.16097-1.45713-2.62995 0-.88849.0829-1.48378.24878-1.78588 .23693-.41463.74633-.71671 1.52821-.90627zm-.45313,2.49668c-.0118.72265.12587,1.21724.41315,1.48379s.7952.41167 1.52377.43536c1.21427.03554 2.28047.05331 3.19859.05331l1.51933-.01777c.44424-.0059.84998-.02962 1.21724-.07108 .55085-.04146.92995-.22508 1.13727-.55087 .14215-.22508.21619-.65452.22213-1.28832-.0119-.88849-.26656-1.45713-.76411-1.70591-.3021-.14808-.9507-.22212-1.94581-.22212l-2.10573-.02665-1.67926.02665c-1.00697.01778-1.65853.09478-1.95469.23101-.33764.14809-.55976.37614-.66638.68414-.0711.2014-.10958.52422-.1155.96846zm.12439-4.83342c0,.64565.0829,1.06324.24878,1.25278 .21323.24286.61306.37317 1.19947.39094l1.49267.05331 1.80365.02665 2.24789-.02665c.78779-.0059 1.32089-.12438 1.5993-.3554 .24284-.20731.36427-.73744.36428-1.59041 .006-.53901-.13921-.9181-.43536-1.13728-.2251-.17177-.63084-.27839-1.21724-.31986-.6338-.04145-1.4838-.05922-2.54999-.05331l-1.98134.01777c-.60419.0059-1.13432.03555-1.59041.08885-.50349.06517-.84111.23694-1.01289.51533-.11254.19548-.16881.57457-.16881,1.13728z" fill="#e6e6e6"/>
     <path d="m791.65 64.34h7.0237v0.68022h-3.1176v5.5087h-0.78843v-5.5087h-3.1176z"/>
     <path d="m800.28953,64.33954v4.05037c.003.44317.0189.72316.0464.83996 .0756.31606.26109.50157.55654.55654 .23017.05497.49814.0876.80389.09791 .58746.02405 1.22473.03607 1.91182.03607h.43286c.80045-.01718 1.30632-.07214 1.5176-.1649s.3444-.29373.39937-.60292c.024-.13054.0361-.38477.0361-.76267v-4.05037h.78843v4.05552c-1e-005,.35385-.007.64414-.0206.87088-.0344.55998-.34355.94131-.92757,1.144-.32293.11337-.84683.17349-1.5717.18036-.4844.01031-.90696.01374-1.26768.01031l-.93787-.01031c-.36416-.01031-.70255-.03264-1.01517-.06699-.34354-.03435-.63383-.11852-.87088-.2525-.20956-.1065-.36244-.26625-.45863-.47924-.0928-.18551-.14944-.37446-.17005-.56685-.0309-.24391-.0447-.53764-.0412-.88119v-4.00399z"/>
     <path d="m808.52 64.34 3.0197 5.3644l3.0146-5.3644h0.86573l-3.4681 6.1889h-0.86057l-3.4681-6.1889z"/>
    </g>
    <g transform="matrix(.52279,-.89533,.97634,.24073,0,0)" fill="#e6e6e6" font-family="Segoe UI" font-size="16.649" letter-spacing="0" word-spacing="0">
     <path d="m869.08944,40.64556c.005.52029.0379.86443.0976,1.03244 .10839.3035.37395.50132.79668.59345 .50402.13007 1.64756.19511 3.43062.19511 1.62046,1e-006 2.64206-.07587 3.0648-.22762 .4715-.16801.76416-.55822.87798-1.17064 .0434-.23304.0677-.7479.0732-1.54459v-1.09747c-.3306.42274-.63952.68288-.92675.78043-.439.16259-.95657.24931-1.55272.26014-.52571.0054-1.05142.0081-1.57711.0081l-2.44696-.04878c-1.07309-.02709-1.82642-.2493-2.25999-.66661-.46066-.44982-.691-1.19773-.691-2.24372 .005-.8021.10026-1.38742.28453-1.75596 .26556-.52028.74926-.85358 1.45111-.99992s1.97409-.22219 3.81677-.22762c1.48496,1e-005 2.56889.0813 3.25177.24388 .3631.09214.67202.23034.92675.4146 .28723.21138.48776.46339.60158.75604 .20594.52571.31704,1.65841.33331,3.3981l-.008,1.53646c-.005.93218-.0623,1.56898-.17072,1.91042-.20596.65036-.61785,1.11373-1.23567,1.39013-.57449.26014-1.83997.3875-3.79645.38208-1.86977-.01084-3.17319-.10026-3.91025-.26827-.62868-.12465-1.08393-.44441-1.36575-.95927-.17885-.31976-.27098-.8834-.2764-1.69092zm.0976-4.09723c0,.77501.17613,1.27633.52841,1.50395 .26556.17343.81023.27099 1.63402.29266 .71538.0271 1.4389.03794 2.17056.03252 .66118.0054 1.26818-.0054 1.82099-.03252 .89965-.02709 1.49039-.23575 1.77222-.62597 .20593-.29807.3089-.7479.30891-1.34949-.0163-1.01888-.57991-1.57168-1.69092-1.6584-.69372-.05419-1.59337-.08129-2.69897-.08129-1.27904,8e-006-2.17327.04337-2.68271.13007s-.84547.28996-1.00805.60971c-.0976.20053-.14904.59346-.15446,1.17877z" fill="#e6e6e6"/>
     <path d="m886.51 37.788 2.117 5.078l1.952-5.078h0.92885l1.9614 5.0874 2.084-5.0874h0.74496l-2.3056 5.6626h-1.0562l-1.9096-4.9177-1.8766 4.9177h-1.0561l-2.3056-5.6626z"/>
     <path d="m899.69 40.47l-2.763-2.6828h1.0043l2.4235 2.3528 2.4706-2.3528h0.96185l-2.7818 2.6828 3.06 2.9798h-0.98071l-2.73-2.6498-2.7582 2.6498h-0.97599z"/>
     <path d="m905.41 37.788 2.6404 2.6875l2.6498-2.6875h0.9477l-3.2486 3.291v2.3716h-0.72139v-2.3716l-3.2392-3.291z"/>
     <path d="m912.12 42.913 5.2996-4.5028h-5.111v-0.62237h6.2426v0.52336l-5.3043 4.5169h5.3798v0.62237h-6.5066z"/>
    </g>
    <g transform="matrix(.51196,-.91427,.95612,.24582,0,0)" fill="#e6e6e6" font-family="Segoe UI" font-size="18.013" letter-spacing="0" word-spacing="0">
     <path d="m696.73 121.98 2.5618 0.74584v-2.605h1.3403v2.605l2.5618-0.74584 0.42156 1.2863-2.4753 0.75664 1.5133 2.2807-1.1025 0.72422-1.589-2.2267-1.589 2.2267-1.1025-0.72422 1.5133-2.2807-2.4753-0.75664z"/>
     <path d="m723.27 123.43v-3.5445h1.161v3.5445h4.0634v1.161h-4.0634v3.5445h-1.161v-3.5445h-4.0634v-1.161z" fill="#e6e6e6"/>
    </g>
    <g transform="matrix(.51133,-.9154,.95494,.24612,0,0)" fill="#e6e6e6" font-family="Segoe UI" font-size="19.528" letter-spacing="0" word-spacing="0">
     <path d="m773.60976,119.03571c-.006-.64204.006-1.19191.0381-1.64961 .0318-.66111.14621-1.28727.34328-1.87847 .20977-.67382.59436-1.17919 1.15377-1.51612 .40684-.24155 1.02982-.40047 1.86893-.47677 .9726-.0826 2.27577-.12394 3.9095-.12396 2.09776.0127 3.42317.12715 3.97624.34328 1.1188.43863 1.74177,1.53202 1.86892,3.28016 .0636.89633.0985,1.80536.10489,2.72711-.006,1.35402-.0858,2.33616-.23838,2.94642-.27972,1.18874-.88362,1.90071-1.81172,2.13592-.74377.20978-2.26306.32102-4.55789.33374-.43864.006-1.14107-.003-2.10732-.0286-1.08703-.0254-1.84668-.0953-2.27894-.20978-.83276-.22885-1.41442-.68336-1.74497-1.36355-.34328-.71197-.51809-2.21856-.52445-4.51976zm1.42077,1.45891c0,.94718.0381,1.58287.11442,1.90707 .18435.7819.58166,1.22053 1.19192,1.31588 .4132.0826.90903.12396 1.48752.12396l2.58408.0286 2.35523-.0477c1.06795-.0254 1.76403-.18435 2.08824-.47677 .34326-.31784.54032-1.00121.59119-2.0501 .006-.20977.01-.59119.01-1.14424-2e-005-1.09338-.0159-2.13591-.0477-3.1276-.0191-.91538-.267-1.55743-.74376-1.92614-.33693-.26062-1.02347-.39729-2.05963-.41002l-2.22174-.01-2.56501.0572c-.77554.0254-1.30952.089-1.60194.19071-.56576.19707-.90268.58166-1.01074,1.15377-.089.41321-.1335.88998-.1335,1.43031z" fill="#e6e6e6"/>
    </g>
    <path d="m521.76-700.81 4.0153 1.1388 7.4569-13.666-4.0153-1.1388" fill="none" stroke="#fff" stroke-width=".85753"/>
    <g transform="matrix(.51133,-.9154,.95494,.24612,0,0)" fill="#e6e6e6" font-family="Segoe UI" font-size="19.528" letter-spacing="0" word-spacing="0">
     <path d="m853.63 119.91h3.242l0.41002-3.0608h-3.242l0.17163-1.2873h3.2516l0.39095-2.9178h0.99167l-0.39095 2.9178h3.3564l0.39095-2.9178h1.0107l-0.38141 2.9178h3.2039l-0.18117 1.2873h-3.1944l-0.42909 3.0608h3.2134l-0.17164 1.2873h-3.2134l-0.42909 3.0799h-1.0108l0.41955-3.0799h-3.366l-0.42909 3.0799h-0.99168l0.42909-3.0799h-3.2325zm4.2337 0h3.3564l0.41955-3.0608h-3.366z" fill="#e6e6e6"/>
    </g>
    <path d="m561.92-786.05 2.504 8.0789 2.0428-3.7378 4.8896 1.2651 3.27-5.9832-4.8896-1.2651 1.8034-3.2997-9.62 4.9419z" fill="none" stroke="#fff" stroke-linecap="square" stroke-width=".84377"/>
    <g transform="matrix(.53631,-.87275,1.0016,.23466,0,0)" fill="#e6e6e6" font-family="Segoe UI" font-size="18.255" letter-spacing="0" word-spacing="0">
     <path d="m975.03733-90.93258v.70418c-.0119.91513-.16937,1.57474-.47242,1.97882-.35061.46351-.94783.76657-1.79164.90919-.73092.13073-2.10064.19016-4.10917.17827-1.18849-1e-006-2.16304-.02674-2.92366-.08022-.59425-.03565-1.11421-.1753-1.55988-.41894-.41003-.20798-.70418-.5051-.88245-.89136-.38032-.76657-.57344-2.25217-.57939-4.45681 0-.98049.0505-1.82728.15154-2.54038 .0713-.54669.23472-.99237.49024-1.33704 .30307-.42784.71012-.71605 1.22117-.86462 .8557-.24957 2.5374-.37139 5.0451-.36546 .73685.006 1.39646.01487 1.97882.02674 .36842.01189.70714.03566 1.01615.07131 1.42023.17234 2.18977,1.01319 2.30863,2.52255l.0535.89136h-1.36378v-.28524c-.006-.68337-.14857-1.19739-.42786-1.54205-.23176-.28523-.73389-.43973-1.5064-.46351-.99239-.0297-1.85998-.04456-2.60277-.04457-.63584,1e-005-1.36676.01338-2.19275.04011s-1.41132.10252-1.75598.2273c-.55264.19611-.86759.65962-.94484,1.39052-.0773.65961-.11291,1.42321-.10696,2.2908-.006.75469.0149,1.47372.0624,2.15709 .0713,1.02804.26889,1.69507.59276,2.0011s1.00574.46797 2.04567.48579c.71903.01188 1.43806.01486 2.15709.0089l2.79888-.05348c.33276-.02377.64177-.07725.92701-.16045 .51698-.13667.82896-.45459.93593-.95376 .0356-.16044.0594-.63584.0713-1.42618z" fill="#e6e6e6"/>
    </g>
    <path d="m320.98-689.72c-2.7746-0.90291-6.0097 0.0223-7.2254 2.0785s0.0508 4.4603 2.8255 5.3632c2.2186 0.72196 4.2559 0.11979 5.7955-1.142l-4.8309 8.1706c0.20862-1.6949-0.57402-3.2147-2.7926-3.9367-2.7746-0.9029-6.0097 0.0223-7.2254 2.0785s0.0508 4.4603 2.8255 5.3632c2.6959 0.87727 4.9843-0.25616 6.4019-2.1502l6.308-10.669c1.1131-2.1386 0.69278-4.2534-2.0818-5.1562z" fill="none" stroke="#fff" stroke-linecap="square" stroke-width=".88"/>
    <g transform="matrix(.1771 -.32621 .32898 .17561 442.4 -287.96)" fill="none" stroke="#fff" stroke-width="2.6879">
     <path transform="rotate(44.525)" d="m-145.02-1004.6h38.643c-3.174 8.2406-4.318 16.837 0 26.39h-38.643c-4.8109-8.4668-3.302-17.367 0-26.39z" stroke-linecap="square"/>
     <path d="m588.79-810.3 28.272 27.376"/>
     <path d="m609.95-771.98 21.59 2.8556-2.6479-21.464"/>
    </g>
   </g>
   <path d="m-553.82-812.83s4.662 24.365 12.049 35.305c30.277 44.84 111.5 43.61 226.11 36.236-46.228-9.9809-153.49-48.009-238.16-71.542z" fill="#fff" opacity=".19027"/>
   <path d="m57.392-615.79 450.68 132.22s2.5244 11.488-6.5003 11.077l-477.01-146.6z" fill="url(#x)" filter="url(#bg)"/>
   <path d="m-512.7-787.96c3.059 12.796 4.0732 16.429 5.9946 22.737 0.31773 0.85859 0.90066 1.4126 1.6262 1.6696 0 0 100.27 30.543 152.4 47.027 0 0 0.94984-0.0163 1.1759-0.58235 1.3818-3.4602 6.3746-15.967 7.4903-18.817 0.13589-0.29178-0.0712-0.6769-0.42325-0.78159l-167.19-52.196c-0.85547-0.21974-1.1717-0.19994-1.0732 0.94281z"/>
   <path d="m-512.7-787.96c3.059 12.796 4.0732 16.429 5.9946 22.737 0.31773 0.85859 0.90066 1.4126 1.6262 1.6696 0 0 100.27 30.543 152.4 47.027 0 0 0.94984-0.0163 1.1759-0.58235 1.3818-3.4602 6.3746-15.967 7.4903-18.817 0.13589-0.29178-0.0712-0.6769-0.42325-0.78159l-167.19-52.196c-0.85547-0.21974-1.1717-0.19994-1.0732 0.94281zm2.4998 3.6067c-0.12689-0.92564 0.62586-1.6427 1.5018-1.3688v2e-5l80.772 25.117-0.25793 6.3118 2.6125-2.1254 0.15745-3.3916 78.321 24.566c0.22783 0.0878 0.25486 0.35338 0.20134 0.52095l-2.5052 6.1666c-0.12161 0.33576-0.46483-0.48283-0.62672-0.53961l-152.09-47.828c-1.5321-0.11786-4.5663 1.1486-4.5663 1.1486l78.406 24.715-0.1513 7.8103 2.669-2.1336 0.014-4.7777 74.826 23.258c0.3448 0.10701 0.28209 1.2626 0.19776 1.5574l-2.2364 5.5252c-0.1776 0.56104-0.56479 0.16282-0.75125 0.25996l-149.34-45.922c-1.1412-0.34863-2.1754-0.26909-2.6578-1.7078z" fill="#b3b3b3" filter="url(#bm)"/>
   <path transform="translate(-569.96 -1229.2)" d="m954.59 680.32 37.005 12.257c-0.1841 3.6078-0.34501 6.0817 1.83 8.8133 3.5144 3.4718 1.5697 8.0983 1.2341 12.636l-46.433-15.321c-0.0679-3.654-0.96811-8.5344 2.7667-10.268 3.3342-1.0607 2.9193-5.0784 3.5973-8.1165z" fill="none" opacity=".65487" stroke="#fff" stroke-width="2"/>
   <path d="m388.72-543.72 31.978 10.521c-1.5774 4.0475-1.7111 6.4214-3.0856 11.635l-33.743-10.735c1.4838-6.3037 1.8466-7.3567 4.8508-11.421z" fill="url(#w)" opacity=".65487"/>
   <g transform="matrix(1.3518 0 0 1.4487 -136.19 241.18)">
    <path d="m391.07-539.99 1.457 0.51277c-1.5762 2.1967-1.6449 2.7088-2.4097 5.7991l-1.5387-0.44605c0.76206-3.2376 0.9484-3.7784 2.4914-5.8658z"/>
    <path d="m395.14-538.69 1.457 0.51277c-1.5762 2.1967-1.6449 2.7088-2.4097 5.7991l-1.5387-0.44605c0.76206-3.2376 0.9484-3.7784 2.4914-5.8658z"/>
    <path d="m399.21-537.33 1.457 0.51277c-1.5762 2.1967-1.6449 2.7088-2.4097 5.7991l-1.5387-0.44605c0.76206-3.2376 0.9484-3.7784 2.4914-5.8658z"/>
    <path d="m403.27-536.04 1.457 0.51277c-1.5762 2.1967-1.6449 2.7088-2.4097 5.7991l-1.5387-0.44605c0.76206-3.2376 0.9484-3.7784 2.4914-5.8658z"/>
    <path d="m407.4-534.74 1.457 0.51277c-1.5762 2.1967-1.6449 2.7088-2.4097 5.7991l-1.5387-0.44605c0.76206-3.2376 0.9484-3.7784 2.4914-5.8658z"/>
   </g>
  </g>
  <path transform="matrix(.59569 0 0 .59569 -236.67 -147.94)" d="m112.52-705.57c-6.6816 13.856-7.1688 37.281-8.2565 60.173-3.2368-1.4398-1.6861-55.221 8.2565-60.173z" fill="#fff" filter="url(#bj)" opacity=".78761"/>
  <path d="m122.6-713.19 243.21 72.26c3.7418 1.2197 6.7004 5.3084 5.2414 8.8406l-92.631 214.66-14.607 24.525-262.51-83.22c-0.88648-11.575 0.71799-21.248 1.396-26.771 0.65419-5.3292 3.1267-10.779 5.0926-12.925l9.8492-9.7207c6.3124 1.01 13.703 4.0045 22.201 4.5694 11.921 0.61256 23.639-5.0135 29.742-14.741 5.3211-8.4818 12.258-19.983 35.535-60.649 14.2-24.808 29.911-49.173 38.685-65.478 2.7727-5.1527 8.7164-16.998 0.29173-23.796l-23.402-13.863 0.30072-9.5165z" fill="#ccc"/>
  <path transform="matrix(.59569 0 0 .60443 -62.283 -84.19)" d="m324.85-1034.9c-1.5863 4.3511-1.2653 8.3606-1.5264 13.451l38.959 23.634c13.957 11.659 3.4928 32.399-1.384 41.414-15.432 28.528-42.877 71.194-67.792 114.62-40.841 71.178-52.993 91.315-62.298 106.17-10.672 17.036-30.673 27.053-50.768 26.219-14.319-0.81762-30.358-6.181-40.972-7.8151-12.287 13.54-18.669 2.3023-19.077 13.107l361.41 101.97c30.705 8.6632 70.8-3.1253 86.675-36.185l108.05-221.7c15.875-33.06 10.376-64.512-20.195-73.621z" fill="url(#v)" filter="url(#be)"/>
  <path d="m129.09-706.44c-0.93997 2.5782-0.74975 3.5717-0.90445 6.5882l23.085 14.004c8.2703 6.9083 2.0697 19.198-0.82009 24.54-9.1443 16.904-25.407 42.186-40.17 67.915-24.2 42.176-31.401 54.108-36.914 62.91-6.3235 10.095-18.175 16.03-30.082 15.536-8.4845-0.48447-17.988-3.6625-24.278-4.6308-7.2808 8.0233-12.055 2.8535-13.488 7.0717l217.45 62.628c15.488 4.4605 43.09-3.4786 52.497-22.824l62.753-131.5c9.4068-19.589 6.0155-38.226-12.099-43.624z" fill="#1a1a1a"/>
  <path d="m121.39-708.17c0.0788 0.0578-0.10937 0.49937-0.484 1.2658l-0.22339 7.4089 23.4 13.85c8.4247 6.7975 2.4935 18.656-0.27923 23.809-8.7739 16.305-24.483 40.662-38.683 65.47-23.277 40.666-30.216 52.167-35.537 60.649-6.1025 9.7272-17.826 15.356-29.747 14.743-8.4973-0.56489-16.088-3.557-22.4-4.567-3.3677 3.7837-8.9482 7.9964-11.256 11.846l215.9 62.213c18.288 5.2698 43.816-4.007 52.793-22.916l62.566-131.76c8.9773-18.908 4.9094-36.09-13.329-41.531z" fill="#808080"/>
  <path d="m78.962-499.14c71.962 23.26 104.8 32.082 142.79 42.895 18.273 5.3222 38.721-3.8708 47.699-22.779l61.772-126.01c8.9773-18.908 4.2514-35.159-13.987-40.6-30.724-9.2087-43.221-15.112-71.69-22.312-36.557 22.452-100.8 129.89-166.59 168.8z" fill="url(#u)"/>
  <path d="m14.722-522.63 22.014 5.5147c18.462 4.6248 43.816-4.007 52.793-22.916l68.523-117.46c8.9773-18.908 8.9847-31.819-12.292-40.274l-24.712-9.2033-0.36181 7.4768 23.4 13.85c8.4247 6.7975 2.4935 18.656-0.27923 23.809-8.7739 16.305-24.483 40.662-38.683 65.47-23.277 40.666-30.216 52.167-35.537 60.649-6.1025 9.7272-17.826 15.356-29.747 14.743-8.4973-0.56489-16.485-3.3584-22.301-4.4677z" fill="#4d4d4d"/>
  <path d="m91.927-556.89 49.243-82.137c12.521-23.13 15.261-34.337 8.6132-33.588-0.90718 1.7263-0.98193 4.1131-2.7524 7.617-12.462 24.663-27.911 47.925-39.927 68.854-31.538 53.911-38.318 67.86-45.936 70.475 0 0 12.427-1.5266 30.76-31.222z" fill="url(#t)"/>
  <path d="m158.42-688.24c-5.5323-7.8755-24.82-12.949-36.427-17.348l-0.069 1.336c28.346 9.7744 36.622 16.754 25.701 19.625 1.4101 0.85293 1.8215 1.6961 2.1886 3.4468 5.2278 0.51492 10.981 6.4083 8.6454 19.224 5.4429-12.873 2.7512-20.169 2.7512-20.169s-0.88422-3.4025-2.79-6.1155z" fill="url(#s)"/>
  <path transform="matrix(.5831 0 0 .58758 -55.205 -99.224)" d="m302.86-759.11 90.269-158.47c11.153-19.58 37.226-29.817 58.833-23.423l127.82 37.822c21.608 6.3935 28.977 27.294 18.888 47.443l-80.182 160.15c-10.088 20.149-37.171 29.628-58.833 23.423l-137.91-39.503c-21.662-6.205-30.042-27.863-18.888-47.443z" fill="#fff" filter="url(#bx)"/>
  <path d="m119.76-545.95 52.776-92.647c6.5209-11.447 21.764-17.432 34.397-13.694l74.732 22.113c12.633 3.738 16.941 15.957 11.043 27.738l-46.879 93.63c-5.8981 11.78-21.732 17.322-34.397 13.694l-80.629-23.096c-12.665-3.6278-17.564-16.29-11.043-27.738z"/>
  <path d="m119.68-547.29 52.482-92.132c6.4846-11.384 21.643-17.335 34.206-13.618l74.316 21.99c12.563 3.7172 16.847 15.869 10.982 27.583l-46.618 93.109c-5.8653 11.715-21.611 17.226-34.206 13.618l-80.181-22.967c-12.594-3.6076-17.466-16.2-10.982-27.583z" fill="url(#r)"/>
  <path d="m213.6-504.83c-7.43 1.3823-51.307-10.467-77.798-15.019-7.6504-1.3146-11.078-2.9581-12.675-5.076 3.8394-5.6897 4.5419-5.1833 7.5308-3.8563 2.1975 0.97566 4.9556 2.2068 9.9807 3.3073 26.931 7.1478 67.321 20.272 72.962 20.644z" fill="url(#q)"/>
  <path d="m125.03-553.82 49.278-86.507c6.0887-10.689 20.322-16.277 32.117-12.787l69.779 20.647c11.796 3.4902 15.818 14.9 10.311 25.899l-43.772 87.425c-5.5072 11-20.292 16.174-32.117 12.787l-75.286-21.565c-11.826-3.3873-16.4-15.211-10.311-25.899z" fill="#e6e6e6"/>
  <path transform="matrix(.28664 -.51606 .55773 .17492 -52.574 -94.624)" d="m816.98 82.662c-6.037-9.9522-13.216-12.91-15.469-114.09-0.69061-31.017 13.591-65.12 11.109-45.102 1.3633 46.231-4.6145 115.16 4.3593 159.19z" fill="url(#p)" filter="url(#bd)"/>
  <path transform="matrix(.59569 0 0 .59569 -62.283 -93.229)" d="m317.82-772.59 79.505-140.78c9.7364-17.241 33.264-26.059 52.574-20.474l115.38 33.374c19.31 5.5851 25.794 23.809 16.879 41.47l-71.652 141.94c-8.9152 17.661-33.216 25.898-52.574 20.474l-123.24-34.53c-19.358-5.4238-26.615-24.229-16.879-41.47z" fill="#b3b3b3" filter="url(#bv)"/>
  <path transform="matrix(.26419 0 0 .26069 86.828 -366.33)" d="m317.82-772.59 79.505-140.78c9.7364-17.241 33.264-26.059 52.574-20.474l115.38 33.374c19.31 5.5851 25.794 23.809 16.879 41.47l-71.652 141.94c-8.9152 17.661-33.216 25.898-52.574 20.474l-123.24-34.53c-19.358-5.4238-26.615-24.229-16.879-41.47z" fill="#fff" filter="url(#bt)"/>
  <path d="m171.76-568.3 20.423-36.164c2.501-4.4287 8.5446-6.6939 13.505-5.2592l29.639 8.5727c4.9601 1.4347 6.6258 6.1158 4.3357 10.652l-18.405 36.46c-2.2901 4.5366-8.5323 6.6525-13.505 5.2593l-31.656-8.8697c-4.9724-1.3932-6.8367-6.2237-4.3357-10.652z" fill="#1a1a1a"/>
  <path d="m174.06-569.44 19.033-33.702c2.3308-4.1273 7.9631-6.2383 12.586-4.9013l27.622 7.9893c4.6225 1.337 6.1748 5.6996 4.0406 9.9274l-17.153 33.979c-2.1342 4.2278-7.9516 6.1997-12.586 4.9013l-29.502-8.266c-4.634-1.2984-6.3714-5.8001-4.0406-9.9274z" fill="#fff"/>
  <path transform="matrix(.61182 0 0 .61182 -69.528 -80.036)" d="m398.68-801.29 30.395-54.848c3.7222-6.7169 12.717-10.152 20.099-7.9766l44.111 13.002c7.3821 2.1759 9.8611 9.2757 6.4528 16.156l-27.392 55.299c-3.4083 6.8805-12.699 10.09-20.099 7.9766l-47.114-13.452c-7.4005-2.113-10.175-9.4393-6.4528-16.156z" fill="#b3b3b3" filter="url(#bs)"/>
  <path transform="matrix(.94401,-.32991,.35663,.93425,0,0)" d="m410.84-578.29a15.75 14.523 0 0 1 15.75 14.523v26.87a15.75 14.523 0 0 1 -15.75 14.523 15.75 14.523 0 0 1 -15.75 -14.523v-26.87a15.75 14.523 0 0 1 15.75 -14.523" fill="#1a1a1a"/>
  <path transform="matrix(.94401,-.32991,.35663,.93425,0,0)" d="m411.07-577.83a15.141 13.962 0 0 1 15.141 13.962v25.831a15.141 13.962 0 0 1 -15.141 13.962 15.141 13.962 0 0 1 -15.141 -13.962v-25.831a15.141 13.962 0 0 1 15.141 -13.962" fill="#b3b3b3"/>
  <path transform="matrix(.94265,-.33378,.35257,.93579,0,0)" d="m408.85-574.4a13.173 12.269 0 0 1 13.173 12.269v22.7a13.173 12.269 0 0 1 -13.173 12.269 13.173 12.269 0 0 1 -13.173 -12.269v-22.7a13.173 12.269 0 0 1 13.173 -12.269" fill="url(#o)"/>
  <g transform="matrix(.59569 0 0 .59569 -62.283 -93.229)">
   <path d="m387.38-819.64-10.413-2.9783-10.432-2.9388 9.7849-8.0685 9.7621-8.0973 0.62833 11.047z" fill="#333"/>
   <path d="m387.38-819.64-8.7481-2.502-8.7639-2.4689 8.2202-6.7782 8.201-6.8025 0.52785 9.2803z" fill="#999"/>
   <path transform="matrix(1.0013 .29106 -.30819 .47097 147.07 -387.82)" d="m-59.133-947.18h20.307v6.3667h-20.307z" fill="#333"/>
   <path transform="matrix(1.0018 .2885 -.31528 .46802 147.07 -387.82)" d="m-62.545-947.91h16.97v5.2541h-16.97z" fill="#808080"/>
   <path transform="matrix(1.0013 .29106 -.30819 .47097 150.37 -393.01)" d="m-59.133-947.18h20.307v6.3667h-20.307z" fill="#333"/>
   <path transform="matrix(1.0018 .2885 -.31528 .46802 150.37 -393.01)" d="m-62.545-947.91h16.97v5.2541h-16.97z" fill="#808080"/>
  </g>
  <g transform="matrix(.61276 .08169 .10968 .29738 31.47 -402.79)">
   <path d="m491.09-866.78-10.413-2.9783-10.432-2.9388 9.7849-8.0685 9.7621-8.0973 0.62833 11.047z" fill="#333"/>
   <path d="m491.09-866.78-8.7481-2.502-8.7639-2.4689 8.2202-6.7782 8.201-6.8025 0.52785 9.2803z" fill="#999"/>
  </g>
  <g transform="matrix(.61276 .08169 .10968 .29738 28.382 -397.17)">
   <path d="m491.09-866.78-10.413-2.9783-10.432-2.9388 9.7849-8.0685 9.7621-8.0973 0.62833 11.047z" fill="#333"/>
   <path d="m491.09-866.78-8.7481-2.502-8.7639-2.4689 8.2202-6.7782 8.201-6.8025 0.52785 9.2803z" fill="#999"/>
  </g>
  <path transform="matrix(.59645 .17338 -.18358 .28055 91.036 -355.42)" d="m-59.133-947.18h20.307v6.3667h-20.307z" fill="#333"/>
  <path transform="matrix(.59674 .17186 -.18781 .2788 91.036 -355.42)" d="m-62.545-947.91h16.97v5.2541h-16.97z" fill="#808080"/>
  <g transform="matrix(.59569 0 0 .59569 -62.002 -93.51)">
   <path d="m399.43-747.89 11.26 2.9149 11.272 2.8978-8.5798 2.6861-8.551 2.7036-2.6802-5.601z" fill="#333"/>
   <path d="m400.37-746 9.4594 2.4488 9.4696 2.4344-7.2078 2.2566-7.1836 2.2713-2.2516-4.7053z" fill="#999"/>
   <path d="m404.62-757.31 11.26 2.9149 11.272 2.8978-8.5798 2.6861-8.551 2.7036-2.6802-5.601z" fill="#333"/>
   <path d="m405.56-755.43 9.4594 2.4488 9.4696 2.4344-7.2078 2.2566-7.1836 2.2713-2.2516-4.7053z" fill="#999"/>
   <path transform="matrix(-.96025,-.27913,.54755,-.83677,0,0)" d="m56.892 852.79h21.175v3.5835h-21.175z" fill="#333"/>
   <path transform="matrix(-.96094,-.27675,.55871,-.82937,0,0)" d="m69.235 856.69h17.691v2.965h-17.691z" fill="#808080"/>
  </g>
  <path transform="matrix(.45723 .10815 -.21187 .41937 4.2741 -193.8)" d="m94.088-934.67h25.456v24.24h-25.456z" fill="#1a1a1a"/>
  <path transform="matrix(.45723 .10815 -.21187 .41937 4.2741 -193.8)" d="m97.837-932.39h22.767v21.679h-22.767z" fill="#999"/>
  <path transform="matrix(.59569 0 0 .59569 -62.283 -93.229)" d="m122.06-692.37 446.89 130.11-9.4281 13.199-439.35-139.54z" fill="#fff" filter="url(#bl)"/>
  <path transform="matrix(.59569 0 0 .59569 -62.283 -93.229)" d="m118.06-684.37 444.22 139.44-28.19 36.19-417.92-130.98z" fill="url(#n)" filter="url(#bk)" opacity=".78761"/>
  <path transform="matrix(.59569 0 0 .59569 -401.81 -825.47)" d="m1134.6 664.82 154.81-346.7 3.7712 5.6568-154.3 350.95" fill="#666" filter="url(#bi)" opacity=".65487"/>
 </g>
</svg>
